G04 EAGLE Gerber RS-274X export*
G75*
%MOMM*%
%FSLAX34Y34*%
%LPD*%
%INBottom Copper*%
%IPPOS*%
%AMOC8*
5,1,8,0,0,1.08239X$1,22.5*%
G01*
%ADD10C,1.524000*%
%ADD11P,1.429621X8X112.500000*%
%ADD12P,1.429621X8X292.500000*%
%ADD13C,1.320800*%
%ADD14P,1.429621X8X22.500000*%
%ADD15C,4.800000*%
%ADD16R,1.108000X1.108000*%
%ADD17C,0.152400*%


D10*
X1137920Y368300D02*
X1122680Y368300D01*
X1122680Y393700D02*
X1137920Y393700D01*
X1137920Y241300D02*
X1122680Y241300D01*
X1122680Y215900D02*
X1137920Y215900D01*
X1137920Y190500D02*
X1122680Y190500D01*
X1087120Y241300D02*
X1071880Y241300D01*
X1071880Y215900D02*
X1087120Y215900D01*
X1087120Y190500D02*
X1071880Y190500D01*
D11*
X1003300Y508000D03*
X1003300Y533400D03*
D12*
X203200Y469900D03*
X203200Y444500D03*
D10*
X1071880Y330200D02*
X1087120Y330200D01*
X1087120Y304800D02*
X1071880Y304800D01*
X1071880Y279400D02*
X1087120Y279400D01*
X1087120Y368300D02*
X1071880Y368300D01*
X1071880Y393700D02*
X1087120Y393700D01*
D13*
X914400Y526796D02*
X914400Y540004D01*
X889000Y540004D02*
X889000Y526796D01*
X812800Y526796D02*
X812800Y540004D01*
X787400Y540004D02*
X787400Y526796D01*
X863600Y526796D02*
X863600Y540004D01*
X838200Y540004D02*
X838200Y526796D01*
X762000Y526796D02*
X762000Y540004D01*
X736600Y540004D02*
X736600Y526796D01*
X736600Y463804D02*
X736600Y450596D01*
X762000Y450596D02*
X762000Y463804D01*
X787400Y463804D02*
X787400Y450596D01*
X812800Y450596D02*
X812800Y463804D01*
X838200Y463804D02*
X838200Y450596D01*
X863600Y450596D02*
X863600Y463804D01*
X889000Y463804D02*
X889000Y450596D01*
X914400Y450596D02*
X914400Y463804D01*
X304800Y400304D02*
X304800Y387096D01*
X330200Y387096D02*
X330200Y400304D01*
X406400Y400304D02*
X406400Y387096D01*
X431800Y387096D02*
X431800Y400304D01*
X355600Y400304D02*
X355600Y387096D01*
X381000Y387096D02*
X381000Y400304D01*
X457200Y400304D02*
X457200Y387096D01*
X482600Y387096D02*
X482600Y400304D01*
X482600Y463296D02*
X482600Y476504D01*
X457200Y476504D02*
X457200Y463296D01*
X431800Y463296D02*
X431800Y476504D01*
X406400Y476504D02*
X406400Y463296D01*
X381000Y463296D02*
X381000Y476504D01*
X355600Y476504D02*
X355600Y463296D01*
X330200Y463296D02*
X330200Y476504D01*
X304800Y476504D02*
X304800Y463296D01*
D10*
X546100Y728980D02*
X546100Y744220D01*
X520700Y744220D02*
X520700Y728980D01*
X419100Y728980D02*
X419100Y744220D01*
X393700Y744220D02*
X393700Y728980D01*
X1054100Y728980D02*
X1054100Y744220D01*
X1028700Y744220D02*
X1028700Y728980D01*
X927100Y728980D02*
X927100Y744220D01*
X901700Y744220D02*
X901700Y728980D01*
X292100Y728980D02*
X292100Y744220D01*
X266700Y744220D02*
X266700Y728980D01*
X139700Y728980D02*
X139700Y744220D01*
X114300Y744220D02*
X114300Y728980D01*
X800100Y728980D02*
X800100Y744220D01*
X774700Y744220D02*
X774700Y728980D01*
X673100Y728980D02*
X673100Y744220D01*
X647700Y744220D02*
X647700Y728980D01*
D13*
X495300Y222504D02*
X495300Y209296D01*
X520700Y209296D02*
X520700Y222504D01*
X596900Y222504D02*
X596900Y209296D01*
X622300Y209296D02*
X622300Y222504D01*
X546100Y222504D02*
X546100Y209296D01*
X571500Y209296D02*
X571500Y222504D01*
X647700Y222504D02*
X647700Y209296D01*
X673100Y209296D02*
X673100Y222504D01*
X673100Y285496D02*
X673100Y298704D01*
X647700Y298704D02*
X647700Y285496D01*
X622300Y285496D02*
X622300Y298704D01*
X596900Y298704D02*
X596900Y285496D01*
X571500Y285496D02*
X571500Y298704D01*
X546100Y298704D02*
X546100Y285496D01*
X520700Y285496D02*
X520700Y298704D01*
X495300Y298704D02*
X495300Y285496D01*
D10*
X1016000Y109220D02*
X1016000Y93980D01*
X1041400Y93980D02*
X1041400Y109220D01*
X876300Y109220D02*
X876300Y93980D01*
X901700Y93980D02*
X901700Y109220D01*
X736600Y109220D02*
X736600Y93980D01*
X762000Y93980D02*
X762000Y109220D01*
X596900Y109220D02*
X596900Y93980D01*
X622300Y93980D02*
X622300Y109220D01*
X457200Y109220D02*
X457200Y93980D01*
X482600Y93980D02*
X482600Y109220D01*
X317500Y109220D02*
X317500Y93980D01*
X342900Y93980D02*
X342900Y109220D01*
X203200Y109220D02*
X203200Y93980D01*
X228600Y93980D02*
X228600Y109220D01*
X63500Y109220D02*
X63500Y93980D01*
X88900Y93980D02*
X88900Y109220D01*
X1092200Y109220D02*
X1092200Y93980D01*
X1066800Y93980D02*
X1066800Y109220D01*
X952500Y109220D02*
X952500Y93980D01*
X927100Y93980D02*
X927100Y109220D01*
X812800Y109220D02*
X812800Y93980D01*
X787400Y93980D02*
X787400Y109220D01*
X673100Y109220D02*
X673100Y93980D01*
X647700Y93980D02*
X647700Y109220D01*
X533400Y109220D02*
X533400Y93980D01*
X508000Y93980D02*
X508000Y109220D01*
X393700Y109220D02*
X393700Y93980D01*
X368300Y93980D02*
X368300Y109220D01*
X279400Y109220D02*
X279400Y93980D01*
X254000Y93980D02*
X254000Y109220D01*
X139700Y109220D02*
X139700Y93980D01*
X114300Y93980D02*
X114300Y109220D01*
D14*
X1016000Y63500D03*
X1041400Y63500D03*
X508000Y63500D03*
X533400Y63500D03*
X317500Y63500D03*
X342900Y63500D03*
X368300Y63500D03*
X393700Y63500D03*
X203200Y63500D03*
X228600Y63500D03*
X254000Y63500D03*
X279400Y63500D03*
X63500Y63500D03*
X88900Y63500D03*
X114300Y63500D03*
X139700Y63500D03*
X1066800Y63500D03*
X1092200Y63500D03*
X876300Y63500D03*
X901700Y63500D03*
X927100Y63500D03*
X952500Y63500D03*
X736600Y63500D03*
X762000Y63500D03*
X787400Y63500D03*
X812800Y63500D03*
X596900Y63500D03*
X622300Y63500D03*
X647700Y63500D03*
X673100Y63500D03*
X457200Y63500D03*
X482600Y63500D03*
D10*
X1122680Y508000D02*
X1137920Y508000D01*
X1137920Y533400D02*
X1122680Y533400D01*
D15*
X139100Y233400D03*
X169100Y280400D03*
X110100Y280400D03*
D10*
X271780Y241300D02*
X287020Y241300D01*
X287020Y266700D02*
X271780Y266700D01*
D16*
X101600Y685800D03*
X101600Y660400D03*
X101600Y635000D03*
X101600Y609600D03*
X177800Y609600D03*
X177800Y635000D03*
X177800Y660400D03*
X177800Y685800D03*
X254000Y685800D03*
X254000Y660400D03*
X254000Y635000D03*
X254000Y609600D03*
X330200Y609600D03*
X330200Y635000D03*
X330200Y660400D03*
X330200Y685800D03*
X508000Y685800D03*
X508000Y660400D03*
X508000Y635000D03*
X508000Y609600D03*
X584200Y609600D03*
X584200Y635000D03*
X584200Y660400D03*
X584200Y685800D03*
X381000Y685800D03*
X381000Y660400D03*
X381000Y635000D03*
X381000Y609600D03*
X457200Y609600D03*
X457200Y635000D03*
X457200Y660400D03*
X457200Y685800D03*
X1016000Y685800D03*
X1016000Y660400D03*
X1016000Y635000D03*
X1016000Y609600D03*
X1092200Y609600D03*
X1092200Y635000D03*
X1092200Y660400D03*
X1092200Y685800D03*
X889000Y685800D03*
X889000Y660400D03*
X889000Y635000D03*
X889000Y609600D03*
X965200Y609600D03*
X965200Y635000D03*
X965200Y660400D03*
X965200Y685800D03*
X635000Y685800D03*
X635000Y660400D03*
X635000Y635000D03*
X635000Y609600D03*
X711200Y609600D03*
X711200Y635000D03*
X711200Y660400D03*
X711200Y685800D03*
X762000Y685800D03*
X762000Y660400D03*
X762000Y635000D03*
X762000Y609600D03*
X838200Y609600D03*
X838200Y635000D03*
X838200Y660400D03*
X838200Y685800D03*
D17*
X584073Y608076D02*
X544068Y608076D01*
X408051Y472059D01*
X584073Y608076D02*
X584200Y609600D01*
X408051Y472059D02*
X406400Y469900D01*
X506730Y597408D02*
X506730Y608076D01*
X506730Y597408D02*
X381381Y472059D01*
X506730Y608076D02*
X508000Y609600D01*
X381381Y472059D02*
X381000Y469900D01*
X378714Y525399D02*
X378714Y608076D01*
X378714Y525399D02*
X330708Y477393D01*
X330708Y472059D01*
X378714Y608076D02*
X381000Y609600D01*
X330708Y472059D02*
X330200Y469900D01*
X1090803Y597408D02*
X1090803Y608076D01*
X1090803Y597408D02*
X1032129Y538734D01*
X1032129Y512064D01*
X941451Y421386D01*
X848106Y421386D01*
X813435Y456057D01*
X1090803Y608076D02*
X1092200Y609600D01*
X813435Y456057D02*
X812800Y457200D01*
X965454Y589407D02*
X965454Y608076D01*
X965454Y589407D02*
X1016127Y538734D01*
X1016127Y528066D01*
X1008126Y520065D01*
X954786Y520065D01*
X901446Y466725D01*
X901446Y445389D01*
X893445Y437388D01*
X882777Y437388D01*
X864108Y456057D01*
X965454Y608076D02*
X965200Y609600D01*
X863600Y457200D02*
X864108Y456057D01*
X890778Y554736D02*
X890778Y608076D01*
X890778Y554736D02*
X901446Y544068D01*
X901446Y474726D01*
X890778Y464058D01*
X890778Y458724D01*
X890778Y608076D02*
X889000Y609600D01*
X890778Y458724D02*
X889000Y457200D01*
X328041Y490728D02*
X328041Y608076D01*
X328041Y490728D02*
X317373Y480060D01*
X317373Y458724D01*
X352044Y424053D01*
X376047Y424053D01*
X406400Y393700D01*
X328041Y608076D02*
X330200Y609600D01*
X256032Y608076D02*
X256032Y514731D01*
X293370Y477393D01*
X293370Y458724D01*
X333375Y418719D01*
X354711Y418719D01*
X378714Y394716D01*
X256032Y608076D02*
X254000Y609600D01*
X378714Y394716D02*
X381000Y393700D01*
X178689Y584073D02*
X178689Y608076D01*
X178689Y584073D02*
X288036Y474726D01*
X288036Y456057D01*
X330708Y413385D01*
X336042Y413385D01*
X354711Y394716D01*
X178689Y608076D02*
X177800Y609600D01*
X354711Y394716D02*
X355600Y393700D01*
X104013Y552069D02*
X104013Y608076D01*
X104013Y552069D02*
X200025Y456057D01*
X266700Y456057D01*
X328041Y394716D01*
X104013Y608076D02*
X101600Y609600D01*
X328041Y394716D02*
X330200Y393700D01*
X762762Y608076D02*
X837438Y533400D01*
X762762Y608076D02*
X762000Y609600D01*
X837438Y533400D02*
X838200Y533400D01*
X744093Y610743D02*
X712089Y610743D01*
X744093Y610743D02*
X754761Y621411D01*
X845439Y621411D01*
X861441Y605409D01*
X861441Y533400D01*
X712089Y610743D02*
X711200Y609600D01*
X861441Y533400D02*
X863600Y533400D01*
X693420Y608076D02*
X637413Y608076D01*
X693420Y608076D02*
X744093Y557403D01*
X786765Y557403D01*
X800100Y544068D01*
X800100Y522732D01*
X813435Y509397D01*
X864108Y509397D01*
X888111Y533400D01*
X637413Y608076D02*
X635000Y609600D01*
X888111Y533400D02*
X889000Y533400D01*
X304038Y394716D02*
X253365Y394716D01*
X205359Y442722D01*
X304038Y394716D02*
X304800Y393700D01*
X205359Y442722D02*
X203200Y444500D01*
X914400Y533400D02*
X1003300Y533400D01*
X1080135Y192024D02*
X1128141Y192024D01*
X1080135Y192024D02*
X1079500Y190500D01*
X1128141Y192024D02*
X1130300Y190500D01*
X482727Y381381D02*
X482727Y392049D01*
X482727Y381381D02*
X570738Y293370D01*
X482727Y392049D02*
X482600Y393700D01*
X570738Y293370D02*
X571500Y292100D01*
X522732Y533400D02*
X736600Y533400D01*
X522732Y533400D02*
X469392Y480060D01*
X469392Y429387D01*
X445389Y405384D01*
X445389Y381381D01*
X453390Y373380D01*
X474726Y373380D01*
X482727Y381381D01*
X482600Y393700D01*
X826770Y192024D02*
X1077468Y192024D01*
X826770Y192024D02*
X706755Y312039D01*
X669417Y312039D01*
X661416Y304038D01*
X661416Y282702D01*
X640080Y261366D01*
X594741Y261366D01*
X573405Y282702D01*
X573405Y290703D01*
X1077468Y192024D02*
X1079500Y190500D01*
X573405Y290703D02*
X571500Y292100D01*
X762762Y509397D02*
X762762Y533400D01*
X762762Y509397D02*
X800100Y472059D01*
X800100Y445389D01*
X821436Y424053D01*
X837438Y424053D01*
X917448Y344043D01*
X1064133Y344043D01*
X1077468Y330708D01*
X762762Y533400D02*
X762000Y533400D01*
X1077468Y330708D02*
X1079500Y330200D01*
X477393Y413385D02*
X458724Y394716D01*
X477393Y413385D02*
X832104Y413385D01*
X912114Y333375D01*
X1042797Y333375D01*
X1069467Y306705D01*
X1077468Y306705D01*
X458724Y394716D02*
X457200Y393700D01*
X1077468Y306705D02*
X1079500Y304800D01*
X616077Y272034D02*
X597408Y290703D01*
X616077Y272034D02*
X626745Y272034D01*
X634746Y280035D01*
X634746Y304038D01*
X648081Y317373D01*
X976122Y317373D01*
X1077468Y216027D01*
X597408Y290703D02*
X596900Y292100D01*
X1077468Y216027D02*
X1079500Y215900D01*
X1080135Y216027D02*
X1128141Y216027D01*
X1130300Y215900D01*
X1080135Y216027D02*
X1079500Y215900D01*
X114681Y101346D02*
X114681Y64008D01*
X114300Y63500D01*
X114681Y101346D02*
X114300Y101600D01*
X253365Y101346D02*
X253365Y64008D01*
X254000Y63500D01*
X253365Y101346D02*
X254000Y101600D01*
X368046Y101346D02*
X368046Y64008D01*
X368300Y63500D01*
X368046Y101346D02*
X368300Y101600D01*
X509397Y101346D02*
X509397Y64008D01*
X508000Y63500D01*
X509397Y101346D02*
X508000Y101600D01*
X648081Y101346D02*
X648081Y64008D01*
X647700Y63500D01*
X648081Y101346D02*
X647700Y101600D01*
X786765Y101346D02*
X786765Y64008D01*
X787400Y63500D01*
X786765Y101346D02*
X787400Y101600D01*
X928116Y101346D02*
X928116Y64008D01*
X927100Y63500D01*
X928116Y101346D02*
X927100Y101600D01*
X1066800Y101600D02*
X1066800Y63500D01*
X789432Y213360D02*
X674751Y213360D01*
X789432Y213360D02*
X874776Y128016D01*
X1016127Y128016D01*
X1040130Y104013D01*
X674751Y213360D02*
X673100Y215900D01*
X1040130Y104013D02*
X1041400Y101600D01*
X1042797Y101346D02*
X1042797Y64008D01*
X1041400Y63500D01*
X1042797Y101346D02*
X1041400Y101600D01*
X733425Y128016D02*
X648081Y213360D01*
X733425Y128016D02*
X866775Y128016D01*
X872109Y122682D01*
X882777Y122682D01*
X901446Y104013D01*
X648081Y213360D02*
X647700Y215900D01*
X901446Y104013D02*
X901700Y101600D01*
X901446Y101346D02*
X901446Y64008D01*
X901700Y63500D01*
X901446Y101346D02*
X901700Y101600D01*
X762762Y101346D02*
X762762Y64008D01*
X762000Y63500D01*
X762762Y101346D02*
X762000Y101600D01*
X714756Y122682D02*
X624078Y213360D01*
X714756Y122682D02*
X741426Y122682D01*
X760095Y104013D01*
X624078Y213360D02*
X622300Y215900D01*
X760095Y104013D02*
X762000Y101600D01*
X621411Y101346D02*
X621411Y64008D01*
X622300Y63500D01*
X621411Y101346D02*
X622300Y101600D01*
X597408Y200025D02*
X597408Y213360D01*
X597408Y200025D02*
X621411Y176022D01*
X621411Y104013D01*
X597408Y213360D02*
X596900Y215900D01*
X621411Y104013D02*
X622300Y101600D01*
X482727Y101346D02*
X482727Y64008D01*
X482600Y63500D01*
X482727Y101346D02*
X482600Y101600D01*
X570738Y192024D02*
X570738Y213360D01*
X570738Y192024D02*
X482727Y104013D01*
X570738Y213360D02*
X571500Y215900D01*
X482727Y104013D02*
X482600Y101600D01*
X344043Y101346D02*
X344043Y64008D01*
X342900Y63500D01*
X344043Y101346D02*
X342900Y101600D01*
X458724Y128016D02*
X544068Y213360D01*
X458724Y128016D02*
X368046Y128016D01*
X344043Y104013D01*
X544068Y213360D02*
X546100Y215900D01*
X344043Y104013D02*
X342900Y101600D01*
X229362Y101346D02*
X229362Y64008D01*
X228600Y63500D01*
X229362Y101346D02*
X228600Y101600D01*
X440055Y133350D02*
X520065Y213360D01*
X440055Y133350D02*
X258699Y133350D01*
X229362Y104013D01*
X520065Y213360D02*
X520700Y215900D01*
X229362Y104013D02*
X228600Y101600D01*
X88011Y101346D02*
X88011Y64008D01*
X88900Y63500D01*
X88011Y101346D02*
X88900Y101600D01*
X192024Y213360D02*
X493395Y213360D01*
X192024Y213360D02*
X90678Y112014D01*
X90678Y104013D01*
X493395Y213360D02*
X495300Y215900D01*
X90678Y104013D02*
X88900Y101600D01*
X941451Y61341D02*
X952119Y61341D01*
X941451Y61341D02*
X930783Y50673D01*
X914781Y50673D02*
X896112Y50673D01*
X914781Y50673D02*
X930783Y50673D01*
X896112Y50673D02*
X888111Y58674D01*
X888111Y90678D01*
X877443Y101346D01*
X952500Y63500D02*
X952119Y61341D01*
X877443Y101346D02*
X876300Y101600D01*
X976122Y104013D02*
X1013460Y104013D01*
X976122Y104013D02*
X957453Y122682D01*
X922782Y122682D01*
X914781Y114681D01*
X914781Y50673D01*
X1013460Y104013D02*
X1016000Y101600D01*
X565404Y61341D02*
X533400Y61341D01*
X565404Y61341D02*
X576072Y50673D01*
X600075Y50673D01*
X608076Y58674D01*
X608076Y90678D01*
X597408Y101346D01*
X533400Y63500D02*
X533400Y61341D01*
X596900Y101600D02*
X597408Y101346D01*
X661416Y61341D02*
X672084Y61341D01*
X661416Y61341D02*
X650748Y50673D01*
X616077Y50673D01*
X608076Y58674D01*
X672084Y61341D02*
X673100Y63500D01*
X802767Y61341D02*
X810768Y61341D01*
X800100Y58674D02*
X792099Y50673D01*
X800100Y58674D02*
X802767Y61341D01*
X792099Y50673D02*
X757428Y50673D01*
X749427Y58674D01*
X749427Y90678D01*
X738759Y101346D01*
X810768Y61341D02*
X812800Y63500D01*
X738759Y101346D02*
X736600Y101600D01*
X1069467Y40005D02*
X1090803Y61341D01*
X1069467Y40005D02*
X834771Y40005D01*
X813435Y61341D01*
X1090803Y61341D02*
X1092200Y63500D01*
X813435Y61341D02*
X812800Y63500D01*
X706755Y61341D02*
X674751Y61341D01*
X706755Y61341D02*
X717423Y50673D01*
X741426Y50673D01*
X749427Y58674D01*
X674751Y61341D02*
X673100Y63500D01*
X837438Y104013D02*
X874776Y104013D01*
X837438Y104013D02*
X818769Y122682D01*
X808101Y122682D01*
X800100Y114681D01*
X800100Y58674D01*
X874776Y104013D02*
X876300Y101600D01*
X277368Y242697D02*
X208026Y242697D01*
X205359Y245364D02*
X170688Y280035D01*
X205359Y245364D02*
X208026Y242697D01*
X277368Y242697D02*
X279400Y241300D01*
X170688Y280035D02*
X169100Y280400D01*
X384048Y61341D02*
X392049Y61341D01*
X381381Y58674D02*
X373380Y50673D01*
X381381Y58674D02*
X384048Y61341D01*
X373380Y50673D02*
X338709Y50673D01*
X330708Y58674D01*
X330708Y90678D01*
X320040Y101346D01*
X392049Y61341D02*
X393700Y63500D01*
X320040Y101346D02*
X317500Y101600D01*
X418719Y104013D02*
X456057Y104013D01*
X418719Y104013D02*
X400050Y122682D01*
X389382Y122682D01*
X381381Y114681D01*
X381381Y58674D01*
X457200Y101600D02*
X456057Y104013D01*
X138684Y61341D02*
X128016Y61341D01*
X117348Y50673D01*
X101346Y50673D02*
X85344Y50673D01*
X101346Y50673D02*
X117348Y50673D01*
X85344Y50673D02*
X74676Y61341D01*
X74676Y90678D01*
X64008Y101346D01*
X139700Y63500D02*
X138684Y61341D01*
X64008Y101346D02*
X63500Y101600D01*
X269367Y61341D02*
X277368Y61341D01*
X266700Y58674D02*
X258699Y50673D01*
X266700Y58674D02*
X269367Y61341D01*
X258699Y50673D02*
X224028Y50673D01*
X216027Y58674D01*
X216027Y90678D01*
X205359Y101346D01*
X277368Y61341D02*
X279400Y63500D01*
X205359Y101346D02*
X203200Y101600D01*
X101346Y114681D02*
X101346Y50673D01*
X101346Y114681D02*
X109347Y122682D01*
X184023Y122682D01*
X202692Y104013D01*
X203200Y101600D01*
X304038Y104013D02*
X317373Y104013D01*
X304038Y104013D02*
X285369Y122682D01*
X274701Y122682D01*
X266700Y114681D01*
X266700Y58674D01*
X317500Y101600D02*
X317373Y104013D01*
X205359Y245364D02*
X64008Y104013D01*
X63500Y101600D01*
X594741Y104013D02*
X594741Y194691D01*
X584073Y205359D01*
X584073Y226695D01*
X576072Y234696D01*
X565404Y234696D01*
X557403Y226695D01*
X557403Y202692D01*
X458724Y104013D01*
X594741Y104013D02*
X596900Y101600D01*
X458724Y104013D02*
X457200Y101600D01*
X786765Y458724D02*
X786765Y477393D01*
X749427Y514731D01*
X749427Y544068D01*
X757428Y552069D01*
X768096Y552069D01*
X786765Y533400D01*
X786765Y458724D02*
X787400Y457200D01*
X787400Y533400D02*
X786765Y533400D01*
X1080135Y368046D02*
X1128141Y368046D01*
X1080135Y368046D02*
X1079500Y368300D01*
X1128141Y368046D02*
X1130300Y368300D01*
X954786Y458724D02*
X914781Y458724D01*
X954786Y458724D02*
X1002792Y506730D01*
X914781Y458724D02*
X914400Y457200D01*
X1002792Y506730D02*
X1003300Y508000D01*
X1058799Y389382D02*
X1077468Y370713D01*
X1058799Y389382D02*
X1058799Y557403D01*
X1104138Y602742D01*
X1104138Y616077D01*
X1098804Y621411D01*
X1008126Y621411D01*
X1005459Y618744D01*
X1005459Y557403D01*
X1021461Y541401D01*
X1021461Y525399D01*
X1005459Y509397D01*
X1077468Y370713D02*
X1079500Y368300D01*
X1003300Y508000D02*
X1005459Y509397D01*
X789432Y525399D02*
X789432Y533400D01*
X789432Y525399D02*
X837438Y477393D01*
X842772Y477393D01*
X850773Y469392D01*
X850773Y445389D01*
X864108Y432054D01*
X896112Y432054D01*
X912114Y448056D01*
X912114Y456057D01*
X789432Y533400D02*
X787400Y533400D01*
X912114Y456057D02*
X914400Y457200D01*
X202692Y472059D02*
X202692Y552069D01*
X165354Y589407D01*
X165354Y616077D01*
X170688Y621411D01*
X261366Y621411D01*
X290703Y592074D02*
X304038Y578739D01*
X290703Y592074D02*
X261366Y621411D01*
X304038Y578739D02*
X304038Y472059D01*
X203200Y469900D02*
X202692Y472059D01*
X304038Y472059D02*
X304800Y469900D01*
X496062Y293370D02*
X520065Y293370D01*
X496062Y293370D02*
X495300Y292100D01*
X520065Y293370D02*
X520700Y292100D01*
X432054Y450723D02*
X432054Y469392D01*
X432054Y450723D02*
X432054Y394716D01*
X431800Y393700D01*
X432054Y469392D02*
X431800Y469900D01*
X493395Y325374D02*
X493395Y293370D01*
X493395Y325374D02*
X432054Y386715D01*
X432054Y392049D01*
X493395Y293370D02*
X495300Y292100D01*
X432054Y392049D02*
X431800Y393700D01*
X290703Y592074D02*
X320040Y621411D01*
X389382Y621411D01*
X392049Y618744D01*
X392049Y530733D01*
X344043Y482727D01*
X344043Y458724D01*
X352044Y450723D01*
X432054Y450723D01*
X741426Y552069D02*
X749427Y544068D01*
X741426Y552069D02*
X512064Y552069D01*
X432054Y472059D01*
X431800Y469900D01*
X645414Y290703D02*
X645414Y282702D01*
X629412Y266700D01*
X597408Y266700D01*
X584073Y280035D01*
X584073Y304038D01*
X608076Y328041D01*
X1029462Y328041D01*
X1077468Y280035D01*
X647700Y292100D02*
X645414Y290703D01*
X1077468Y280035D02*
X1079500Y279400D01*
X509397Y688086D02*
X509397Y725424D01*
X520065Y736092D01*
X509397Y688086D02*
X508000Y685800D01*
X520065Y736092D02*
X520700Y736600D01*
X381381Y725424D02*
X381381Y688086D01*
X381381Y725424D02*
X392049Y736092D01*
X381381Y688086D02*
X381000Y685800D01*
X392049Y736092D02*
X393700Y736600D01*
X1016127Y608076D02*
X1016127Y554736D01*
X1026795Y544068D01*
X1026795Y514731D01*
X938784Y426720D01*
X861441Y426720D01*
X840105Y448056D01*
X840105Y456057D01*
X1016127Y608076D02*
X1016000Y609600D01*
X840105Y456057D02*
X838200Y457200D01*
X1016127Y688086D02*
X1016127Y725424D01*
X1026795Y736092D01*
X1016127Y688086D02*
X1016000Y685800D01*
X1026795Y736092D02*
X1028700Y736600D01*
X890778Y725424D02*
X890778Y688086D01*
X890778Y725424D02*
X901446Y736092D01*
X890778Y688086D02*
X889000Y685800D01*
X901446Y736092D02*
X901700Y736600D01*
X725424Y469392D02*
X482727Y469392D01*
X725424Y469392D02*
X736092Y458724D01*
X482727Y469392D02*
X482600Y469900D01*
X736092Y458724D02*
X736600Y457200D01*
X624078Y301371D02*
X624078Y293370D01*
X624078Y301371D02*
X645414Y322707D01*
X997458Y322707D01*
X1077468Y242697D01*
X624078Y293370D02*
X622300Y292100D01*
X1077468Y242697D02*
X1079500Y241300D01*
X1080135Y242697D02*
X1101471Y242697D01*
X1128141Y242697D01*
X1130300Y241300D01*
X1080135Y242697D02*
X1079500Y241300D01*
X776097Y418719D02*
X738759Y456057D01*
X776097Y418719D02*
X834771Y418719D01*
X914781Y338709D01*
X1045464Y338709D01*
X1066800Y317373D01*
X1093470Y317373D01*
X1101471Y309372D01*
X1101471Y242697D01*
X738759Y456057D02*
X736600Y457200D01*
X736092Y64008D02*
X712089Y64008D01*
X674751Y101346D01*
X736092Y64008D02*
X736600Y63500D01*
X674751Y101346D02*
X673100Y101600D01*
X581406Y256032D02*
X546735Y290703D01*
X610743Y256032D02*
X642747Y256032D01*
X610743Y256032D02*
X581406Y256032D01*
X642747Y256032D02*
X672084Y285369D01*
X672084Y290703D01*
X546735Y290703D02*
X546100Y292100D01*
X672084Y290703D02*
X673100Y292100D01*
X672084Y141351D02*
X672084Y104013D01*
X672084Y141351D02*
X610743Y202692D01*
X610743Y256032D01*
X672084Y104013D02*
X673100Y101600D01*
X279400Y266700D02*
X224028Y266700D01*
X181356Y309372D01*
X138684Y309372D01*
X112014Y282702D01*
X110100Y280400D01*
X432054Y64008D02*
X456057Y64008D01*
X421386Y74676D02*
X394716Y101346D01*
X421386Y74676D02*
X432054Y64008D01*
X456057Y64008D02*
X457200Y63500D01*
X394716Y101346D02*
X393700Y101600D01*
X570738Y64008D02*
X594741Y64008D01*
X544068Y90678D02*
X533400Y101346D01*
X544068Y90678D02*
X570738Y64008D01*
X594741Y64008D02*
X596900Y63500D01*
X533400Y101346D02*
X533400Y101600D01*
X466725Y61341D02*
X458724Y61341D01*
X466725Y61341D02*
X477393Y50673D01*
X512064Y50673D01*
X520065Y58674D01*
X520065Y66675D01*
X544068Y90678D01*
X458724Y61341D02*
X457200Y63500D01*
X306705Y74676D02*
X280035Y101346D01*
X306705Y74676D02*
X317373Y64008D01*
X317500Y63500D01*
X280035Y101346D02*
X279400Y101600D01*
X80010Y45339D02*
X64008Y61341D01*
X152019Y45339D02*
X186690Y45339D01*
X152019Y45339D02*
X80010Y45339D01*
X186690Y45339D02*
X202692Y61341D01*
X64008Y61341D02*
X63500Y63500D01*
X202692Y61341D02*
X203200Y63500D01*
X141351Y80010D02*
X141351Y101346D01*
X141351Y80010D02*
X152019Y69342D01*
X152019Y45339D01*
X141351Y101346D02*
X139700Y101600D01*
X277368Y45339D02*
X306705Y74676D01*
X277368Y45339D02*
X221361Y45339D01*
X203200Y63500D01*
X392049Y45339D02*
X421386Y74676D01*
X392049Y45339D02*
X336042Y45339D01*
X320040Y61341D01*
X317500Y63500D01*
X109347Y173355D02*
X109347Y280035D01*
X109347Y173355D02*
X50673Y114681D01*
X50673Y74676D01*
X61341Y64008D01*
X109347Y280035D02*
X110100Y280400D01*
X61341Y64008D02*
X63500Y63500D01*
X520065Y266700D02*
X544068Y290703D01*
X520065Y266700D02*
X279400Y266700D01*
X544068Y290703D02*
X546100Y292100D01*
X850773Y64008D02*
X874776Y64008D01*
X850773Y64008D02*
X813435Y101346D01*
X874776Y64008D02*
X876300Y63500D01*
X813435Y101346D02*
X812800Y101600D01*
X992124Y64008D02*
X1013460Y64008D01*
X981456Y74676D02*
X954786Y101346D01*
X981456Y74676D02*
X992124Y64008D01*
X1013460Y64008D02*
X1016000Y63500D01*
X954786Y101346D02*
X952500Y101600D01*
X1090803Y101346D02*
X1090803Y80010D01*
X1080135Y69342D01*
X1080135Y58674D01*
X1072134Y50673D01*
X1026795Y50673D01*
X1016127Y61341D01*
X1090803Y101346D02*
X1092200Y101600D01*
X1016000Y63500D02*
X1016127Y61341D01*
X893445Y45339D02*
X877443Y61341D01*
X893445Y45339D02*
X952119Y45339D01*
X981456Y74676D01*
X877443Y61341D02*
X876300Y63500D01*
X1109472Y394716D02*
X1128141Y394716D01*
X1109472Y394716D02*
X1080135Y394716D01*
X1079500Y393700D01*
X1128141Y394716D02*
X1130300Y393700D01*
X1109472Y514731D02*
X1128141Y533400D01*
X1109472Y493395D02*
X1109472Y394716D01*
X1109472Y493395D02*
X1109472Y514731D01*
X1128141Y533400D02*
X1130300Y533400D01*
X234696Y685419D02*
X178689Y685419D01*
X234696Y685419D02*
X248031Y672084D01*
X298704Y672084D01*
X322707Y648081D01*
X336042Y648081D01*
X341376Y653415D01*
X341376Y672084D02*
X341376Y674751D01*
X341376Y672084D02*
X341376Y653415D01*
X341376Y674751D02*
X330708Y685419D01*
X178689Y685419D02*
X177800Y685800D01*
X330200Y685800D02*
X330708Y685419D01*
X458724Y685419D02*
X458724Y677418D01*
X469392Y666750D01*
X469392Y653415D01*
X464058Y648081D01*
X413385Y648081D01*
X389382Y672084D01*
X341376Y672084D01*
X457200Y685800D02*
X458724Y685419D01*
X586740Y685419D02*
X586740Y677418D01*
X592074Y672084D02*
X594741Y669417D01*
X592074Y672084D02*
X586740Y677418D01*
X594741Y669417D02*
X594741Y650748D01*
X592074Y648081D01*
X538734Y648081D01*
X514731Y672084D01*
X474726Y672084D01*
X469392Y666750D01*
X584200Y685800D02*
X586740Y685419D01*
X712089Y685419D02*
X712089Y677418D01*
X722757Y666750D01*
X722757Y653415D01*
X717423Y648081D01*
X666750Y648081D01*
X642747Y672084D01*
X592074Y672084D01*
X711200Y685800D02*
X712089Y685419D01*
X840105Y685419D02*
X840105Y677418D01*
X850773Y666750D01*
X850773Y653415D01*
X845439Y648081D01*
X792099Y648081D01*
X768096Y672084D01*
X728091Y672084D01*
X722757Y666750D01*
X838200Y685800D02*
X840105Y685419D01*
X965454Y685419D02*
X965454Y680085D01*
X973455Y672084D02*
X976122Y669417D01*
X973455Y672084D02*
X965454Y680085D01*
X976122Y669417D02*
X976122Y653415D01*
X970788Y648081D01*
X920115Y648081D01*
X896112Y672084D01*
X856107Y672084D01*
X850773Y666750D01*
X965200Y685800D02*
X965454Y685419D01*
X1093470Y685419D02*
X1093470Y677418D01*
X1104138Y666750D01*
X1104138Y653415D01*
X1098804Y648081D01*
X1048131Y648081D01*
X1024128Y672084D01*
X973455Y672084D01*
X1092200Y685800D02*
X1093470Y685419D01*
X1109472Y493395D02*
X1141476Y493395D01*
X1157478Y509397D01*
X1157478Y589407D01*
X1098804Y648081D01*
X1093470Y128016D02*
X1093470Y104013D01*
X1093470Y128016D02*
X1152144Y186690D01*
X1152144Y373380D01*
X1130808Y394716D01*
X1093470Y104013D02*
X1092200Y101600D01*
X1130300Y393700D02*
X1130808Y394716D01*
X720090Y290703D02*
X674751Y290703D01*
X720090Y290703D02*
X877443Y133350D01*
X1088136Y133350D01*
X1093470Y128016D01*
X674751Y290703D02*
X673100Y292100D01*
X840105Y637413D02*
X888111Y637413D01*
X840105Y637413D02*
X838200Y635000D01*
X888111Y637413D02*
X889000Y635000D01*
X890778Y637413D02*
X890778Y658749D01*
X889000Y660400D01*
X965454Y637413D02*
X1013460Y637413D01*
X965454Y637413D02*
X965200Y635000D01*
X1013460Y637413D02*
X1016000Y635000D01*
X1016127Y637413D02*
X1016127Y658749D01*
X1016000Y660400D01*
X1016127Y637413D02*
X1090803Y637413D01*
X1092200Y635000D01*
X1016127Y637413D02*
X1016000Y635000D01*
X1141476Y520065D02*
X1130808Y509397D01*
X1141476Y520065D02*
X1144143Y520065D01*
X1152144Y528066D01*
X1152144Y576072D01*
X1093470Y634746D01*
X1130808Y509397D02*
X1130300Y508000D01*
X1093470Y634746D02*
X1092200Y635000D01*
X962787Y637413D02*
X890778Y637413D01*
X889000Y635000D01*
X962787Y637413D02*
X965200Y635000D01*
X634746Y637413D02*
X586740Y637413D01*
X584200Y635000D01*
X634746Y637413D02*
X635000Y635000D01*
X637413Y637413D02*
X637413Y658749D01*
X635000Y660400D01*
X712089Y637413D02*
X760095Y637413D01*
X712089Y637413D02*
X711200Y635000D01*
X760095Y637413D02*
X762000Y635000D01*
X762762Y637413D02*
X762762Y658749D01*
X762000Y660400D01*
X709422Y637413D02*
X637413Y637413D01*
X635000Y635000D01*
X709422Y637413D02*
X711200Y635000D01*
X104013Y637413D02*
X104013Y658749D01*
X101600Y660400D01*
X104013Y637413D02*
X176022Y637413D01*
X177800Y635000D01*
X104013Y637413D02*
X101600Y635000D01*
X458724Y637413D02*
X506730Y637413D01*
X458724Y637413D02*
X457200Y635000D01*
X506730Y637413D02*
X508000Y635000D01*
X509397Y637413D02*
X509397Y658749D01*
X508000Y660400D01*
X256032Y658749D02*
X256032Y637413D01*
X256032Y658749D02*
X254000Y660400D01*
X330708Y637413D02*
X378714Y637413D01*
X330708Y637413D02*
X330200Y635000D01*
X378714Y637413D02*
X381000Y635000D01*
X381381Y637413D02*
X381381Y658749D01*
X381000Y660400D01*
X328041Y637413D02*
X256032Y637413D01*
X254000Y635000D01*
X328041Y637413D02*
X330200Y635000D01*
X381381Y637413D02*
X456057Y637413D01*
X457200Y635000D01*
X381381Y637413D02*
X381000Y635000D01*
X253365Y637413D02*
X178689Y637413D01*
X177800Y635000D01*
X253365Y637413D02*
X254000Y635000D01*
X509397Y637413D02*
X584073Y637413D01*
X584200Y635000D01*
X509397Y637413D02*
X508000Y635000D01*
X762762Y637413D02*
X837438Y637413D01*
X838200Y635000D01*
X762762Y637413D02*
X762000Y635000D01*
X256032Y688086D02*
X256032Y725424D01*
X266700Y736092D01*
X256032Y688086D02*
X254000Y685800D01*
X266700Y736092D02*
X266700Y736600D01*
X104013Y728091D02*
X104013Y688086D01*
X104013Y728091D02*
X112014Y736092D01*
X104013Y688086D02*
X101600Y685800D01*
X112014Y736092D02*
X114300Y736600D01*
X840105Y608076D02*
X840105Y554736D01*
X850773Y544068D01*
X850773Y522732D01*
X842772Y514731D01*
X832104Y514731D01*
X813435Y533400D01*
X840105Y608076D02*
X838200Y609600D01*
X813435Y533400D02*
X812800Y533400D01*
X637413Y688086D02*
X637413Y728091D01*
X645414Y736092D01*
X637413Y688086D02*
X635000Y685800D01*
X645414Y736092D02*
X647700Y736600D01*
X762762Y725424D02*
X762762Y688086D01*
X762762Y725424D02*
X773430Y736092D01*
X762762Y688086D02*
X762000Y685800D01*
X773430Y736092D02*
X774700Y736600D01*
X456057Y608076D02*
X456057Y570738D01*
X357378Y472059D01*
X456057Y608076D02*
X457200Y609600D01*
X357378Y472059D02*
X355600Y469900D01*
X584073Y661416D02*
X584073Y666750D01*
X546735Y704088D01*
X546735Y736092D01*
X584073Y661416D02*
X584200Y660400D01*
X546735Y736092D02*
X546100Y736600D01*
X328041Y669417D02*
X328041Y661416D01*
X328041Y669417D02*
X293370Y704088D01*
X293370Y736092D01*
X328041Y661416D02*
X330200Y660400D01*
X293370Y736092D02*
X292100Y736600D01*
X176022Y669417D02*
X176022Y661416D01*
X176022Y669417D02*
X141351Y704088D01*
X141351Y736092D01*
X176022Y661416D02*
X177800Y660400D01*
X141351Y736092D02*
X139700Y736600D01*
X837438Y666750D02*
X837438Y661416D01*
X837438Y666750D02*
X800100Y704088D01*
X800100Y736600D01*
X837438Y661416D02*
X838200Y660400D01*
X709422Y661416D02*
X709422Y669417D01*
X674751Y704088D01*
X674751Y736092D01*
X709422Y661416D02*
X711200Y660400D01*
X674751Y736092D02*
X673100Y736600D01*
X962787Y669417D02*
X962787Y661416D01*
X962787Y669417D02*
X928116Y704088D01*
X928116Y736092D01*
X962787Y661416D02*
X965200Y660400D01*
X928116Y736092D02*
X927100Y736600D01*
X1090803Y669417D02*
X1090803Y661416D01*
X1090803Y669417D02*
X1056132Y704088D01*
X1056132Y736092D01*
X1090803Y661416D02*
X1092200Y660400D01*
X1056132Y736092D02*
X1054100Y736600D01*
X456057Y666750D02*
X456057Y661416D01*
X456057Y666750D02*
X421386Y701421D01*
X421386Y736092D01*
X456057Y661416D02*
X457200Y660400D01*
X421386Y736092D02*
X419100Y736600D01*
M02*
