G04 EAGLE Gerber RS-274X export*
G75*
%MOMM*%
%FSLAX34Y34*%
%LPD*%
%IN*%
%IPPOS*%
%AMOC8*
5,1,8,0,0,1.08239X$1,22.5*%
G01*
%ADD10C,0.254000*%


D10*
X0Y0D02*
X1193600Y0D01*
X1193600Y784100D01*
X0Y784100D01*
X0Y0D01*
X40400Y761464D02*
X40324Y760396D01*
X40171Y759335D01*
X39943Y758288D01*
X39641Y757260D01*
X39267Y756256D01*
X38822Y755281D01*
X38308Y754341D01*
X37729Y753440D01*
X37087Y752582D01*
X36385Y751772D01*
X35628Y751015D01*
X34818Y750313D01*
X33960Y749671D01*
X33059Y749092D01*
X32119Y748578D01*
X31144Y748133D01*
X30140Y747759D01*
X29112Y747457D01*
X28065Y747229D01*
X27004Y747076D01*
X25936Y747000D01*
X24864Y747000D01*
X23796Y747076D01*
X22735Y747229D01*
X21688Y747457D01*
X20660Y747759D01*
X19656Y748133D01*
X18681Y748578D01*
X17741Y749092D01*
X16840Y749671D01*
X15982Y750313D01*
X15172Y751015D01*
X14415Y751772D01*
X13713Y752582D01*
X13071Y753440D01*
X12492Y754341D01*
X11978Y755281D01*
X11533Y756256D01*
X11159Y757260D01*
X10857Y758288D01*
X10629Y759335D01*
X10476Y760396D01*
X10400Y761464D01*
X10400Y762536D01*
X10476Y763604D01*
X10629Y764665D01*
X10857Y765712D01*
X11159Y766740D01*
X11533Y767744D01*
X11978Y768719D01*
X12492Y769659D01*
X13071Y770560D01*
X13713Y771418D01*
X14415Y772228D01*
X15172Y772985D01*
X15982Y773687D01*
X16840Y774329D01*
X17741Y774908D01*
X18681Y775422D01*
X19656Y775867D01*
X20660Y776241D01*
X21688Y776543D01*
X22735Y776771D01*
X23796Y776924D01*
X24864Y777000D01*
X25936Y777000D01*
X27004Y776924D01*
X28065Y776771D01*
X29112Y776543D01*
X30140Y776241D01*
X31144Y775867D01*
X32119Y775422D01*
X33059Y774908D01*
X33960Y774329D01*
X34818Y773687D01*
X35628Y772985D01*
X36385Y772228D01*
X37087Y771418D01*
X37729Y770560D01*
X38308Y769659D01*
X38822Y768719D01*
X39267Y767744D01*
X39641Y766740D01*
X39943Y765712D01*
X40171Y764665D01*
X40324Y763604D01*
X40400Y762536D01*
X40400Y761464D01*
X1183400Y761464D02*
X1183324Y760396D01*
X1183171Y759335D01*
X1182943Y758288D01*
X1182641Y757260D01*
X1182267Y756256D01*
X1181822Y755281D01*
X1181308Y754341D01*
X1180729Y753440D01*
X1180087Y752582D01*
X1179385Y751772D01*
X1178628Y751015D01*
X1177818Y750313D01*
X1176960Y749671D01*
X1176059Y749092D01*
X1175119Y748578D01*
X1174144Y748133D01*
X1173140Y747759D01*
X1172112Y747457D01*
X1171065Y747229D01*
X1170004Y747076D01*
X1168936Y747000D01*
X1167864Y747000D01*
X1166796Y747076D01*
X1165735Y747229D01*
X1164688Y747457D01*
X1163660Y747759D01*
X1162656Y748133D01*
X1161681Y748578D01*
X1160741Y749092D01*
X1159840Y749671D01*
X1158982Y750313D01*
X1158172Y751015D01*
X1157415Y751772D01*
X1156713Y752582D01*
X1156071Y753440D01*
X1155492Y754341D01*
X1154978Y755281D01*
X1154533Y756256D01*
X1154159Y757260D01*
X1153857Y758288D01*
X1153629Y759335D01*
X1153476Y760396D01*
X1153400Y761464D01*
X1153400Y762536D01*
X1153476Y763604D01*
X1153629Y764665D01*
X1153857Y765712D01*
X1154159Y766740D01*
X1154533Y767744D01*
X1154978Y768719D01*
X1155492Y769659D01*
X1156071Y770560D01*
X1156713Y771418D01*
X1157415Y772228D01*
X1158172Y772985D01*
X1158982Y773687D01*
X1159840Y774329D01*
X1160741Y774908D01*
X1161681Y775422D01*
X1162656Y775867D01*
X1163660Y776241D01*
X1164688Y776543D01*
X1165735Y776771D01*
X1166796Y776924D01*
X1167864Y777000D01*
X1168936Y777000D01*
X1170004Y776924D01*
X1171065Y776771D01*
X1172112Y776543D01*
X1173140Y776241D01*
X1174144Y775867D01*
X1175119Y775422D01*
X1176059Y774908D01*
X1176960Y774329D01*
X1177818Y773687D01*
X1178628Y772985D01*
X1179385Y772228D01*
X1180087Y771418D01*
X1180729Y770560D01*
X1181308Y769659D01*
X1181822Y768719D01*
X1182267Y767744D01*
X1182641Y766740D01*
X1182943Y765712D01*
X1183171Y764665D01*
X1183324Y763604D01*
X1183400Y762536D01*
X1183400Y761464D01*
X1183400Y24864D02*
X1183324Y23796D01*
X1183171Y22735D01*
X1182943Y21688D01*
X1182641Y20660D01*
X1182267Y19656D01*
X1181822Y18681D01*
X1181308Y17741D01*
X1180729Y16840D01*
X1180087Y15982D01*
X1179385Y15172D01*
X1178628Y14415D01*
X1177818Y13713D01*
X1176960Y13071D01*
X1176059Y12492D01*
X1175119Y11978D01*
X1174144Y11533D01*
X1173140Y11159D01*
X1172112Y10857D01*
X1171065Y10629D01*
X1170004Y10476D01*
X1168936Y10400D01*
X1167864Y10400D01*
X1166796Y10476D01*
X1165735Y10629D01*
X1164688Y10857D01*
X1163660Y11159D01*
X1162656Y11533D01*
X1161681Y11978D01*
X1160741Y12492D01*
X1159840Y13071D01*
X1158982Y13713D01*
X1158172Y14415D01*
X1157415Y15172D01*
X1156713Y15982D01*
X1156071Y16840D01*
X1155492Y17741D01*
X1154978Y18681D01*
X1154533Y19656D01*
X1154159Y20660D01*
X1153857Y21688D01*
X1153629Y22735D01*
X1153476Y23796D01*
X1153400Y24864D01*
X1153400Y25936D01*
X1153476Y27004D01*
X1153629Y28065D01*
X1153857Y29112D01*
X1154159Y30140D01*
X1154533Y31144D01*
X1154978Y32119D01*
X1155492Y33059D01*
X1156071Y33960D01*
X1156713Y34818D01*
X1157415Y35628D01*
X1158172Y36385D01*
X1158982Y37087D01*
X1159840Y37729D01*
X1160741Y38308D01*
X1161681Y38822D01*
X1162656Y39267D01*
X1163660Y39641D01*
X1164688Y39943D01*
X1165735Y40171D01*
X1166796Y40324D01*
X1167864Y40400D01*
X1168936Y40400D01*
X1170004Y40324D01*
X1171065Y40171D01*
X1172112Y39943D01*
X1173140Y39641D01*
X1174144Y39267D01*
X1175119Y38822D01*
X1176059Y38308D01*
X1176960Y37729D01*
X1177818Y37087D01*
X1178628Y36385D01*
X1179385Y35628D01*
X1180087Y34818D01*
X1180729Y33960D01*
X1181308Y33059D01*
X1181822Y32119D01*
X1182267Y31144D01*
X1182641Y30140D01*
X1182943Y29112D01*
X1183171Y28065D01*
X1183324Y27004D01*
X1183400Y25936D01*
X1183400Y24864D01*
X40400Y24864D02*
X40324Y23796D01*
X40171Y22735D01*
X39943Y21688D01*
X39641Y20660D01*
X39267Y19656D01*
X38822Y18681D01*
X38308Y17741D01*
X37729Y16840D01*
X37087Y15982D01*
X36385Y15172D01*
X35628Y14415D01*
X34818Y13713D01*
X33960Y13071D01*
X33059Y12492D01*
X32119Y11978D01*
X31144Y11533D01*
X30140Y11159D01*
X29112Y10857D01*
X28065Y10629D01*
X27004Y10476D01*
X25936Y10400D01*
X24864Y10400D01*
X23796Y10476D01*
X22735Y10629D01*
X21688Y10857D01*
X20660Y11159D01*
X19656Y11533D01*
X18681Y11978D01*
X17741Y12492D01*
X16840Y13071D01*
X15982Y13713D01*
X15172Y14415D01*
X14415Y15172D01*
X13713Y15982D01*
X13071Y16840D01*
X12492Y17741D01*
X11978Y18681D01*
X11533Y19656D01*
X11159Y20660D01*
X10857Y21688D01*
X10629Y22735D01*
X10476Y23796D01*
X10400Y24864D01*
X10400Y25936D01*
X10476Y27004D01*
X10629Y28065D01*
X10857Y29112D01*
X11159Y30140D01*
X11533Y31144D01*
X11978Y32119D01*
X12492Y33059D01*
X13071Y33960D01*
X13713Y34818D01*
X14415Y35628D01*
X15172Y36385D01*
X15982Y37087D01*
X16840Y37729D01*
X17741Y38308D01*
X18681Y38822D01*
X19656Y39267D01*
X20660Y39641D01*
X21688Y39943D01*
X22735Y40171D01*
X23796Y40324D01*
X24864Y40400D01*
X25936Y40400D01*
X27004Y40324D01*
X28065Y40171D01*
X29112Y39943D01*
X30140Y39641D01*
X31144Y39267D01*
X32119Y38822D01*
X33059Y38308D01*
X33960Y37729D01*
X34818Y37087D01*
X35628Y36385D01*
X36385Y35628D01*
X37087Y34818D01*
X37729Y33960D01*
X38308Y33059D01*
X38822Y32119D01*
X39267Y31144D01*
X39641Y30140D01*
X39943Y29112D01*
X40171Y28065D01*
X40324Y27004D01*
X40400Y25936D01*
X40400Y24864D01*
M02*
