G04 EAGLE Gerber RS-274X export*
G75*
%MOMM*%
%FSLAX34Y34*%
%LPD*%
%INSilkscreen Bottom*%
%IPPOS*%
%AMOC8*
5,1,8,0,0,1.08239X$1,22.5*%
G01*
%ADD10C,0.152400*%
%ADD11C,0.304800*%
%ADD12C,0.127000*%


D10*
X209550Y478790D02*
X196850Y478790D01*
X196710Y478788D01*
X196570Y478782D01*
X196430Y478773D01*
X196291Y478759D01*
X196152Y478742D01*
X196014Y478721D01*
X195876Y478696D01*
X195739Y478667D01*
X195603Y478635D01*
X195468Y478598D01*
X195334Y478558D01*
X195201Y478515D01*
X195069Y478467D01*
X194938Y478417D01*
X194809Y478362D01*
X194682Y478304D01*
X194556Y478243D01*
X194432Y478178D01*
X194310Y478109D01*
X194190Y478038D01*
X194072Y477963D01*
X193955Y477885D01*
X193841Y477803D01*
X193730Y477719D01*
X193621Y477631D01*
X193514Y477541D01*
X193409Y477447D01*
X193308Y477351D01*
X193209Y477252D01*
X193113Y477151D01*
X193019Y477046D01*
X192929Y476939D01*
X192841Y476830D01*
X192757Y476719D01*
X192675Y476605D01*
X192597Y476488D01*
X192522Y476370D01*
X192451Y476250D01*
X192382Y476128D01*
X192317Y476004D01*
X192256Y475878D01*
X192198Y475751D01*
X192143Y475622D01*
X192093Y475491D01*
X192045Y475359D01*
X192002Y475226D01*
X191962Y475092D01*
X191925Y474957D01*
X191893Y474821D01*
X191864Y474684D01*
X191839Y474546D01*
X191818Y474408D01*
X191801Y474269D01*
X191787Y474130D01*
X191778Y473990D01*
X191772Y473850D01*
X191770Y473710D01*
X209550Y478790D02*
X209690Y478788D01*
X209830Y478782D01*
X209970Y478773D01*
X210109Y478759D01*
X210248Y478742D01*
X210386Y478721D01*
X210524Y478696D01*
X210661Y478667D01*
X210797Y478635D01*
X210932Y478598D01*
X211066Y478558D01*
X211199Y478515D01*
X211331Y478467D01*
X211462Y478417D01*
X211591Y478362D01*
X211718Y478304D01*
X211844Y478243D01*
X211968Y478178D01*
X212090Y478109D01*
X212210Y478038D01*
X212328Y477963D01*
X212445Y477885D01*
X212559Y477803D01*
X212670Y477719D01*
X212779Y477631D01*
X212886Y477541D01*
X212991Y477447D01*
X213092Y477351D01*
X213191Y477252D01*
X213287Y477151D01*
X213381Y477046D01*
X213471Y476939D01*
X213559Y476830D01*
X213643Y476719D01*
X213725Y476605D01*
X213803Y476488D01*
X213878Y476370D01*
X213949Y476250D01*
X214018Y476128D01*
X214083Y476004D01*
X214144Y475878D01*
X214202Y475751D01*
X214257Y475622D01*
X214307Y475491D01*
X214355Y475359D01*
X214398Y475226D01*
X214438Y475092D01*
X214475Y474957D01*
X214507Y474821D01*
X214536Y474684D01*
X214561Y474546D01*
X214582Y474408D01*
X214599Y474269D01*
X214613Y474130D01*
X214622Y473990D01*
X214628Y473850D01*
X214630Y473710D01*
X191770Y473710D02*
X191770Y440690D01*
X196850Y435610D02*
X209550Y435610D01*
X214630Y440690D02*
X214630Y473710D01*
X191770Y440690D02*
X191772Y440550D01*
X191778Y440410D01*
X191787Y440270D01*
X191801Y440131D01*
X191818Y439992D01*
X191839Y439854D01*
X191864Y439716D01*
X191893Y439579D01*
X191925Y439443D01*
X191962Y439308D01*
X192002Y439174D01*
X192045Y439041D01*
X192093Y438909D01*
X192143Y438778D01*
X192198Y438649D01*
X192256Y438522D01*
X192317Y438396D01*
X192382Y438272D01*
X192451Y438150D01*
X192522Y438030D01*
X192597Y437912D01*
X192675Y437795D01*
X192757Y437681D01*
X192841Y437570D01*
X192929Y437461D01*
X193019Y437354D01*
X193113Y437249D01*
X193209Y437148D01*
X193308Y437049D01*
X193409Y436953D01*
X193514Y436859D01*
X193621Y436769D01*
X193730Y436681D01*
X193841Y436597D01*
X193955Y436515D01*
X194072Y436437D01*
X194190Y436362D01*
X194310Y436291D01*
X194432Y436222D01*
X194556Y436157D01*
X194682Y436096D01*
X194809Y436038D01*
X194938Y435983D01*
X195069Y435933D01*
X195201Y435885D01*
X195334Y435842D01*
X195468Y435802D01*
X195603Y435765D01*
X195739Y435733D01*
X195876Y435704D01*
X196014Y435679D01*
X196152Y435658D01*
X196291Y435641D01*
X196430Y435627D01*
X196570Y435618D01*
X196710Y435612D01*
X196850Y435610D01*
X209550Y435610D02*
X209690Y435612D01*
X209830Y435618D01*
X209970Y435627D01*
X210109Y435641D01*
X210248Y435658D01*
X210386Y435679D01*
X210524Y435704D01*
X210661Y435733D01*
X210797Y435765D01*
X210932Y435802D01*
X211066Y435842D01*
X211199Y435885D01*
X211331Y435933D01*
X211462Y435983D01*
X211591Y436038D01*
X211718Y436096D01*
X211844Y436157D01*
X211968Y436222D01*
X212090Y436291D01*
X212210Y436362D01*
X212328Y436437D01*
X212445Y436515D01*
X212559Y436597D01*
X212670Y436681D01*
X212779Y436769D01*
X212886Y436859D01*
X212991Y436953D01*
X213092Y437049D01*
X213191Y437148D01*
X213287Y437249D01*
X213381Y437354D01*
X213471Y437461D01*
X213559Y437570D01*
X213643Y437681D01*
X213725Y437795D01*
X213803Y437912D01*
X213878Y438030D01*
X213949Y438150D01*
X214018Y438272D01*
X214083Y438396D01*
X214144Y438522D01*
X214202Y438649D01*
X214257Y438778D01*
X214307Y438909D01*
X214355Y439041D01*
X214398Y439174D01*
X214438Y439308D01*
X214475Y439443D01*
X214507Y439579D01*
X214536Y439716D01*
X214561Y439854D01*
X214582Y439992D01*
X214599Y440131D01*
X214613Y440270D01*
X214622Y440410D01*
X214628Y440550D01*
X214630Y440690D01*
D11*
X210820Y460248D02*
X195580Y460248D01*
X195580Y453898D02*
X210820Y453898D01*
D12*
X177165Y460973D02*
X177165Y463513D01*
X177165Y460973D02*
X177167Y460873D01*
X177173Y460774D01*
X177183Y460674D01*
X177196Y460576D01*
X177214Y460477D01*
X177235Y460380D01*
X177260Y460284D01*
X177289Y460188D01*
X177322Y460094D01*
X177358Y460001D01*
X177398Y459910D01*
X177442Y459820D01*
X177489Y459732D01*
X177539Y459646D01*
X177593Y459562D01*
X177650Y459480D01*
X177710Y459401D01*
X177774Y459323D01*
X177840Y459249D01*
X177909Y459177D01*
X177981Y459108D01*
X178055Y459042D01*
X178133Y458978D01*
X178212Y458918D01*
X178294Y458861D01*
X178378Y458807D01*
X178464Y458757D01*
X178552Y458710D01*
X178642Y458666D01*
X178733Y458626D01*
X178826Y458590D01*
X178920Y458557D01*
X179016Y458528D01*
X179112Y458503D01*
X179209Y458482D01*
X179308Y458464D01*
X179406Y458451D01*
X179506Y458441D01*
X179605Y458435D01*
X179705Y458433D01*
X186055Y458433D01*
X186155Y458435D01*
X186254Y458441D01*
X186354Y458451D01*
X186452Y458464D01*
X186551Y458482D01*
X186648Y458503D01*
X186744Y458528D01*
X186840Y458557D01*
X186934Y458590D01*
X187027Y458626D01*
X187118Y458666D01*
X187208Y458710D01*
X187296Y458757D01*
X187382Y458807D01*
X187466Y458861D01*
X187548Y458918D01*
X187627Y458978D01*
X187705Y459042D01*
X187779Y459108D01*
X187851Y459177D01*
X187920Y459249D01*
X187986Y459323D01*
X188050Y459401D01*
X188110Y459480D01*
X188167Y459562D01*
X188221Y459646D01*
X188271Y459732D01*
X188318Y459820D01*
X188362Y459910D01*
X188402Y460001D01*
X188438Y460094D01*
X188471Y460188D01*
X188500Y460284D01*
X188525Y460380D01*
X188546Y460477D01*
X188564Y460576D01*
X188577Y460674D01*
X188587Y460774D01*
X188593Y460873D01*
X188595Y460973D01*
X188595Y463513D01*
X188596Y471488D02*
X188594Y471592D01*
X188588Y471697D01*
X188579Y471801D01*
X188566Y471904D01*
X188548Y472007D01*
X188528Y472109D01*
X188503Y472211D01*
X188475Y472311D01*
X188443Y472411D01*
X188407Y472509D01*
X188368Y472606D01*
X188326Y472701D01*
X188280Y472795D01*
X188230Y472887D01*
X188178Y472977D01*
X188122Y473065D01*
X188062Y473151D01*
X188000Y473235D01*
X187935Y473316D01*
X187867Y473395D01*
X187795Y473472D01*
X187722Y473545D01*
X187645Y473617D01*
X187566Y473685D01*
X187485Y473750D01*
X187401Y473812D01*
X187315Y473872D01*
X187227Y473928D01*
X187137Y473980D01*
X187045Y474030D01*
X186951Y474076D01*
X186856Y474118D01*
X186759Y474157D01*
X186661Y474193D01*
X186561Y474225D01*
X186461Y474253D01*
X186359Y474278D01*
X186257Y474298D01*
X186154Y474316D01*
X186051Y474329D01*
X185947Y474338D01*
X185842Y474344D01*
X185738Y474346D01*
X188595Y471488D02*
X188593Y471370D01*
X188587Y471251D01*
X188578Y471133D01*
X188565Y471016D01*
X188547Y470899D01*
X188527Y470782D01*
X188502Y470666D01*
X188474Y470551D01*
X188441Y470438D01*
X188406Y470325D01*
X188366Y470213D01*
X188324Y470103D01*
X188277Y469994D01*
X188227Y469886D01*
X188174Y469781D01*
X188117Y469677D01*
X188057Y469575D01*
X187994Y469475D01*
X187927Y469377D01*
X187858Y469281D01*
X187785Y469188D01*
X187709Y469097D01*
X187631Y469008D01*
X187549Y468922D01*
X187465Y468839D01*
X187379Y468758D01*
X187289Y468681D01*
X187198Y468606D01*
X187104Y468534D01*
X187007Y468465D01*
X186909Y468400D01*
X186808Y468337D01*
X186705Y468278D01*
X186601Y468222D01*
X186495Y468170D01*
X186387Y468121D01*
X186278Y468076D01*
X186167Y468034D01*
X186055Y467996D01*
X183516Y473393D02*
X183591Y473469D01*
X183670Y473544D01*
X183751Y473615D01*
X183835Y473684D01*
X183921Y473749D01*
X184009Y473811D01*
X184099Y473871D01*
X184191Y473927D01*
X184286Y473980D01*
X184382Y474029D01*
X184480Y474075D01*
X184579Y474118D01*
X184680Y474157D01*
X184782Y474192D01*
X184885Y474224D01*
X184989Y474252D01*
X185094Y474277D01*
X185201Y474298D01*
X185307Y474315D01*
X185414Y474328D01*
X185522Y474337D01*
X185630Y474343D01*
X185738Y474345D01*
X183515Y473393D02*
X177165Y467995D01*
X177165Y474345D01*
M02*
