G04 EAGLE Gerber RS-274X export*
G75*
%MOMM*%
%FSLAX34Y34*%
%LPD*%
%INSoldermask Bottom*%
%IPPOS*%
%AMOC8*
5,1,8,0,0,1.08239X$1,22.5*%
G01*
%ADD10C,3.203200*%
%ADD11C,1.727200*%
%ADD12P,1.649562X8X112.500000*%
%ADD13P,1.649562X8X292.500000*%
%ADD14C,1.524000*%
%ADD15P,1.649562X8X22.500000*%
%ADD16C,5.003200*%
%ADD17R,1.311200X1.311200*%


D10*
X25400Y762000D03*
X1168400Y762000D03*
X1168400Y25400D03*
X25400Y25400D03*
D11*
X1122680Y368300D02*
X1137920Y368300D01*
X1137920Y393700D02*
X1122680Y393700D01*
X1122680Y241300D02*
X1137920Y241300D01*
X1137920Y215900D02*
X1122680Y215900D01*
X1122680Y190500D02*
X1137920Y190500D01*
X1087120Y241300D02*
X1071880Y241300D01*
X1071880Y215900D02*
X1087120Y215900D01*
X1087120Y190500D02*
X1071880Y190500D01*
D12*
X1003300Y508000D03*
X1003300Y533400D03*
D13*
X203200Y469900D03*
X203200Y444500D03*
D11*
X1071880Y330200D02*
X1087120Y330200D01*
X1087120Y304800D02*
X1071880Y304800D01*
X1071880Y279400D02*
X1087120Y279400D01*
X1087120Y368300D02*
X1071880Y368300D01*
X1071880Y393700D02*
X1087120Y393700D01*
D14*
X914400Y526796D02*
X914400Y540004D01*
X889000Y540004D02*
X889000Y526796D01*
X812800Y526796D02*
X812800Y540004D01*
X787400Y540004D02*
X787400Y526796D01*
X863600Y526796D02*
X863600Y540004D01*
X838200Y540004D02*
X838200Y526796D01*
X762000Y526796D02*
X762000Y540004D01*
X736600Y540004D02*
X736600Y526796D01*
X736600Y463804D02*
X736600Y450596D01*
X762000Y450596D02*
X762000Y463804D01*
X787400Y463804D02*
X787400Y450596D01*
X812800Y450596D02*
X812800Y463804D01*
X838200Y463804D02*
X838200Y450596D01*
X863600Y450596D02*
X863600Y463804D01*
X889000Y463804D02*
X889000Y450596D01*
X914400Y450596D02*
X914400Y463804D01*
X304800Y400304D02*
X304800Y387096D01*
X330200Y387096D02*
X330200Y400304D01*
X406400Y400304D02*
X406400Y387096D01*
X431800Y387096D02*
X431800Y400304D01*
X355600Y400304D02*
X355600Y387096D01*
X381000Y387096D02*
X381000Y400304D01*
X457200Y400304D02*
X457200Y387096D01*
X482600Y387096D02*
X482600Y400304D01*
X482600Y463296D02*
X482600Y476504D01*
X457200Y476504D02*
X457200Y463296D01*
X431800Y463296D02*
X431800Y476504D01*
X406400Y476504D02*
X406400Y463296D01*
X381000Y463296D02*
X381000Y476504D01*
X355600Y476504D02*
X355600Y463296D01*
X330200Y463296D02*
X330200Y476504D01*
X304800Y476504D02*
X304800Y463296D01*
D11*
X546100Y728980D02*
X546100Y744220D01*
X520700Y744220D02*
X520700Y728980D01*
X419100Y728980D02*
X419100Y744220D01*
X393700Y744220D02*
X393700Y728980D01*
X1054100Y728980D02*
X1054100Y744220D01*
X1028700Y744220D02*
X1028700Y728980D01*
X927100Y728980D02*
X927100Y744220D01*
X901700Y744220D02*
X901700Y728980D01*
X292100Y728980D02*
X292100Y744220D01*
X266700Y744220D02*
X266700Y728980D01*
X139700Y728980D02*
X139700Y744220D01*
X114300Y744220D02*
X114300Y728980D01*
X800100Y728980D02*
X800100Y744220D01*
X774700Y744220D02*
X774700Y728980D01*
X673100Y728980D02*
X673100Y744220D01*
X647700Y744220D02*
X647700Y728980D01*
D14*
X495300Y222504D02*
X495300Y209296D01*
X520700Y209296D02*
X520700Y222504D01*
X596900Y222504D02*
X596900Y209296D01*
X622300Y209296D02*
X622300Y222504D01*
X546100Y222504D02*
X546100Y209296D01*
X571500Y209296D02*
X571500Y222504D01*
X647700Y222504D02*
X647700Y209296D01*
X673100Y209296D02*
X673100Y222504D01*
X673100Y285496D02*
X673100Y298704D01*
X647700Y298704D02*
X647700Y285496D01*
X622300Y285496D02*
X622300Y298704D01*
X596900Y298704D02*
X596900Y285496D01*
X571500Y285496D02*
X571500Y298704D01*
X546100Y298704D02*
X546100Y285496D01*
X520700Y285496D02*
X520700Y298704D01*
X495300Y298704D02*
X495300Y285496D01*
D11*
X1016000Y109220D02*
X1016000Y93980D01*
X1041400Y93980D02*
X1041400Y109220D01*
X876300Y109220D02*
X876300Y93980D01*
X901700Y93980D02*
X901700Y109220D01*
X736600Y109220D02*
X736600Y93980D01*
X762000Y93980D02*
X762000Y109220D01*
X596900Y109220D02*
X596900Y93980D01*
X622300Y93980D02*
X622300Y109220D01*
X457200Y109220D02*
X457200Y93980D01*
X482600Y93980D02*
X482600Y109220D01*
X317500Y109220D02*
X317500Y93980D01*
X342900Y93980D02*
X342900Y109220D01*
X203200Y109220D02*
X203200Y93980D01*
X228600Y93980D02*
X228600Y109220D01*
X63500Y109220D02*
X63500Y93980D01*
X88900Y93980D02*
X88900Y109220D01*
X1092200Y109220D02*
X1092200Y93980D01*
X1066800Y93980D02*
X1066800Y109220D01*
X952500Y109220D02*
X952500Y93980D01*
X927100Y93980D02*
X927100Y109220D01*
X812800Y109220D02*
X812800Y93980D01*
X787400Y93980D02*
X787400Y109220D01*
X673100Y109220D02*
X673100Y93980D01*
X647700Y93980D02*
X647700Y109220D01*
X533400Y109220D02*
X533400Y93980D01*
X508000Y93980D02*
X508000Y109220D01*
X393700Y109220D02*
X393700Y93980D01*
X368300Y93980D02*
X368300Y109220D01*
X279400Y109220D02*
X279400Y93980D01*
X254000Y93980D02*
X254000Y109220D01*
X139700Y109220D02*
X139700Y93980D01*
X114300Y93980D02*
X114300Y109220D01*
D15*
X1016000Y63500D03*
X1041400Y63500D03*
X508000Y63500D03*
X533400Y63500D03*
X317500Y63500D03*
X342900Y63500D03*
X368300Y63500D03*
X393700Y63500D03*
X203200Y63500D03*
X228600Y63500D03*
X254000Y63500D03*
X279400Y63500D03*
X63500Y63500D03*
X88900Y63500D03*
X114300Y63500D03*
X139700Y63500D03*
X1066800Y63500D03*
X1092200Y63500D03*
X876300Y63500D03*
X901700Y63500D03*
X927100Y63500D03*
X952500Y63500D03*
X736600Y63500D03*
X762000Y63500D03*
X787400Y63500D03*
X812800Y63500D03*
X596900Y63500D03*
X622300Y63500D03*
X647700Y63500D03*
X673100Y63500D03*
X457200Y63500D03*
X482600Y63500D03*
D11*
X1122680Y508000D02*
X1137920Y508000D01*
X1137920Y533400D02*
X1122680Y533400D01*
D16*
X139100Y233400D03*
X169100Y280400D03*
X110100Y280400D03*
D11*
X271780Y241300D02*
X287020Y241300D01*
X287020Y266700D02*
X271780Y266700D01*
D17*
X101600Y685800D03*
X101600Y660400D03*
X101600Y635000D03*
X101600Y609600D03*
X177800Y609600D03*
X177800Y635000D03*
X177800Y660400D03*
X177800Y685800D03*
X254000Y685800D03*
X254000Y660400D03*
X254000Y635000D03*
X254000Y609600D03*
X330200Y609600D03*
X330200Y635000D03*
X330200Y660400D03*
X330200Y685800D03*
X508000Y685800D03*
X508000Y660400D03*
X508000Y635000D03*
X508000Y609600D03*
X584200Y609600D03*
X584200Y635000D03*
X584200Y660400D03*
X584200Y685800D03*
X381000Y685800D03*
X381000Y660400D03*
X381000Y635000D03*
X381000Y609600D03*
X457200Y609600D03*
X457200Y635000D03*
X457200Y660400D03*
X457200Y685800D03*
X1016000Y685800D03*
X1016000Y660400D03*
X1016000Y635000D03*
X1016000Y609600D03*
X1092200Y609600D03*
X1092200Y635000D03*
X1092200Y660400D03*
X1092200Y685800D03*
X889000Y685800D03*
X889000Y660400D03*
X889000Y635000D03*
X889000Y609600D03*
X965200Y609600D03*
X965200Y635000D03*
X965200Y660400D03*
X965200Y685800D03*
X635000Y685800D03*
X635000Y660400D03*
X635000Y635000D03*
X635000Y609600D03*
X711200Y609600D03*
X711200Y635000D03*
X711200Y660400D03*
X711200Y685800D03*
X762000Y685800D03*
X762000Y660400D03*
X762000Y635000D03*
X762000Y609600D03*
X838200Y609600D03*
X838200Y635000D03*
X838200Y660400D03*
X838200Y685800D03*
M02*
