G04 EAGLE Gerber RS-274X export*
G75*
%MOMM*%
%FSLAX34Y34*%
%LPD*%
%INTop Copper*%
%IPPOS*%
%AMOC8*
5,1,8,0,0,1.08239X$1,22.5*%
G01*
%ADD10C,1.524000*%
%ADD11P,1.429621X8X112.500000*%
%ADD12P,1.429621X8X292.500000*%
%ADD13C,1.320800*%
%ADD14P,1.429621X8X22.500000*%
%ADD15R,2.500000X0.500000*%
%ADD16C,4.800000*%
%ADD17C,0.152400*%


D10*
X1137920Y419100D02*
X1122680Y419100D01*
X1122680Y444500D02*
X1137920Y444500D01*
X1137920Y241300D02*
X1122680Y241300D01*
X1122680Y215900D02*
X1137920Y215900D01*
X1137920Y190500D02*
X1122680Y190500D01*
X1087120Y241300D02*
X1071880Y241300D01*
X1071880Y215900D02*
X1087120Y215900D01*
X1087120Y190500D02*
X1071880Y190500D01*
D11*
X1003300Y457200D03*
X1003300Y482600D03*
D12*
X101600Y495300D03*
X101600Y469900D03*
D10*
X1021080Y355600D02*
X1036320Y355600D01*
X1036320Y330200D02*
X1021080Y330200D01*
X1021080Y304800D02*
X1036320Y304800D01*
X1071880Y419100D02*
X1087120Y419100D01*
X1087120Y444500D02*
X1071880Y444500D01*
D13*
X914400Y501396D02*
X914400Y514604D01*
X889000Y514604D02*
X889000Y501396D01*
X812800Y501396D02*
X812800Y514604D01*
X787400Y514604D02*
X787400Y501396D01*
X863600Y501396D02*
X863600Y514604D01*
X838200Y514604D02*
X838200Y501396D01*
X762000Y501396D02*
X762000Y514604D01*
X736600Y514604D02*
X736600Y501396D01*
X736600Y438404D02*
X736600Y425196D01*
X762000Y425196D02*
X762000Y438404D01*
X787400Y438404D02*
X787400Y425196D01*
X812800Y425196D02*
X812800Y438404D01*
X838200Y438404D02*
X838200Y425196D01*
X863600Y425196D02*
X863600Y438404D01*
X889000Y438404D02*
X889000Y425196D01*
X914400Y425196D02*
X914400Y438404D01*
X304800Y425704D02*
X304800Y412496D01*
X330200Y412496D02*
X330200Y425704D01*
X406400Y425704D02*
X406400Y412496D01*
X431800Y412496D02*
X431800Y425704D01*
X355600Y425704D02*
X355600Y412496D01*
X381000Y412496D02*
X381000Y425704D01*
X457200Y425704D02*
X457200Y412496D01*
X482600Y412496D02*
X482600Y425704D01*
X482600Y488696D02*
X482600Y501904D01*
X457200Y501904D02*
X457200Y488696D01*
X431800Y488696D02*
X431800Y501904D01*
X406400Y501904D02*
X406400Y488696D01*
X381000Y488696D02*
X381000Y501904D01*
X355600Y501904D02*
X355600Y488696D01*
X330200Y488696D02*
X330200Y501904D01*
X304800Y501904D02*
X304800Y488696D01*
D10*
X520700Y652780D02*
X520700Y668020D01*
X495300Y668020D02*
X495300Y652780D01*
X393700Y652780D02*
X393700Y668020D01*
X368300Y668020D02*
X368300Y652780D01*
X1028700Y652780D02*
X1028700Y668020D01*
X1003300Y668020D02*
X1003300Y652780D01*
X901700Y652780D02*
X901700Y668020D01*
X876300Y668020D02*
X876300Y652780D01*
X266700Y652780D02*
X266700Y668020D01*
X241300Y668020D02*
X241300Y652780D01*
X114300Y652780D02*
X114300Y668020D01*
X88900Y668020D02*
X88900Y652780D01*
X774700Y652780D02*
X774700Y668020D01*
X749300Y668020D02*
X749300Y652780D01*
X647700Y652780D02*
X647700Y668020D01*
X622300Y668020D02*
X622300Y652780D01*
D13*
X368300Y222504D02*
X368300Y209296D01*
X393700Y209296D02*
X393700Y222504D01*
X469900Y222504D02*
X469900Y209296D01*
X495300Y209296D02*
X495300Y222504D01*
X419100Y222504D02*
X419100Y209296D01*
X444500Y209296D02*
X444500Y222504D01*
X520700Y222504D02*
X520700Y209296D01*
X546100Y209296D02*
X546100Y222504D01*
X546100Y285496D02*
X546100Y298704D01*
X520700Y298704D02*
X520700Y285496D01*
X495300Y285496D02*
X495300Y298704D01*
X469900Y298704D02*
X469900Y285496D01*
X444500Y285496D02*
X444500Y298704D01*
X419100Y298704D02*
X419100Y285496D01*
X393700Y285496D02*
X393700Y298704D01*
X368300Y298704D02*
X368300Y285496D01*
D10*
X1016000Y109220D02*
X1016000Y93980D01*
X1041400Y93980D02*
X1041400Y109220D01*
X876300Y109220D02*
X876300Y93980D01*
X901700Y93980D02*
X901700Y109220D01*
X736600Y109220D02*
X736600Y93980D01*
X762000Y93980D02*
X762000Y109220D01*
X596900Y109220D02*
X596900Y93980D01*
X622300Y93980D02*
X622300Y109220D01*
X457200Y109220D02*
X457200Y93980D01*
X482600Y93980D02*
X482600Y109220D01*
X317500Y109220D02*
X317500Y93980D01*
X342900Y93980D02*
X342900Y109220D01*
X203200Y109220D02*
X203200Y93980D01*
X228600Y93980D02*
X228600Y109220D01*
X63500Y109220D02*
X63500Y93980D01*
X88900Y93980D02*
X88900Y109220D01*
X1092200Y109220D02*
X1092200Y93980D01*
X1066800Y93980D02*
X1066800Y109220D01*
X952500Y109220D02*
X952500Y93980D01*
X927100Y93980D02*
X927100Y109220D01*
X812800Y109220D02*
X812800Y93980D01*
X787400Y93980D02*
X787400Y109220D01*
X673100Y109220D02*
X673100Y93980D01*
X647700Y93980D02*
X647700Y109220D01*
X533400Y109220D02*
X533400Y93980D01*
X508000Y93980D02*
X508000Y109220D01*
X393700Y109220D02*
X393700Y93980D01*
X368300Y93980D02*
X368300Y109220D01*
X279400Y109220D02*
X279400Y93980D01*
X254000Y93980D02*
X254000Y109220D01*
X139700Y109220D02*
X139700Y93980D01*
X114300Y93980D02*
X114300Y109220D01*
D14*
X1016000Y63500D03*
X1041400Y63500D03*
X508000Y63500D03*
X533400Y63500D03*
X317500Y63500D03*
X342900Y63500D03*
X368300Y63500D03*
X393700Y63500D03*
X203200Y63500D03*
X228600Y63500D03*
X254000Y63500D03*
X279400Y63500D03*
X63500Y63500D03*
X88900Y63500D03*
X114300Y63500D03*
X139700Y63500D03*
X1066800Y63500D03*
X1092200Y63500D03*
X876300Y63500D03*
X901700Y63500D03*
X927100Y63500D03*
X952500Y63500D03*
X736600Y63500D03*
X762000Y63500D03*
X787400Y63500D03*
X812800Y63500D03*
X596900Y63500D03*
X622300Y63500D03*
X647700Y63500D03*
X673100Y63500D03*
X457200Y63500D03*
X482600Y63500D03*
D10*
X1122680Y508000D02*
X1137920Y508000D01*
X1137920Y533400D02*
X1122680Y533400D01*
D15*
X482600Y622300D03*
X482600Y609600D03*
X482600Y596900D03*
X482600Y584200D03*
X558700Y622300D03*
X558700Y609600D03*
X558700Y596900D03*
X558700Y584200D03*
X355600Y622300D03*
X355600Y609600D03*
X355600Y596900D03*
X355600Y584200D03*
X431700Y622300D03*
X431700Y609600D03*
X431700Y596900D03*
X431700Y584200D03*
X990600Y622300D03*
X990600Y609600D03*
X990600Y596900D03*
X990600Y584200D03*
X1066700Y622300D03*
X1066700Y609600D03*
X1066700Y596900D03*
X1066700Y584200D03*
X863600Y622300D03*
X863600Y609600D03*
X863600Y596900D03*
X863600Y584200D03*
X939700Y622300D03*
X939700Y609600D03*
X939700Y596900D03*
X939700Y584200D03*
X228600Y622300D03*
X228600Y609600D03*
X228600Y596900D03*
X228600Y584200D03*
X304700Y622300D03*
X304700Y609600D03*
X304700Y596900D03*
X304700Y584200D03*
X76200Y622300D03*
X76200Y609600D03*
X76200Y596900D03*
X76200Y584200D03*
X152300Y622300D03*
X152300Y609600D03*
X152300Y596900D03*
X152300Y584200D03*
X736600Y622300D03*
X736600Y609600D03*
X736600Y596900D03*
X736600Y584200D03*
X812700Y622300D03*
X812700Y609600D03*
X812700Y596900D03*
X812700Y584200D03*
X609600Y622300D03*
X609600Y609600D03*
X609600Y596900D03*
X609600Y584200D03*
X685700Y622300D03*
X685700Y609600D03*
X685700Y596900D03*
X685700Y584200D03*
D16*
X139100Y300000D03*
X169100Y253000D03*
X110100Y253000D03*
D17*
X502920Y582930D02*
X557784Y582930D01*
X502920Y582930D02*
X434340Y514350D01*
X425196Y514350D01*
X406908Y496062D01*
X557784Y582930D02*
X558700Y584200D01*
X406908Y496062D02*
X406400Y495300D01*
X468630Y582930D02*
X482346Y582930D01*
X468630Y582930D02*
X381000Y495300D01*
X482346Y582930D02*
X482600Y584200D01*
X354330Y582930D02*
X354330Y518922D01*
X331470Y496062D01*
X354330Y582930D02*
X355600Y584200D01*
X331470Y496062D02*
X330200Y495300D01*
X1065276Y496062D02*
X1065276Y582930D01*
X1065276Y496062D02*
X992124Y422910D01*
X934974Y422910D01*
X912114Y400050D01*
X843534Y400050D01*
X813816Y429768D01*
X1065276Y582930D02*
X1066700Y584200D01*
X812800Y431800D02*
X813816Y429768D01*
X941832Y560070D02*
X941832Y582930D01*
X941832Y560070D02*
X1014984Y486918D01*
X1014984Y477774D01*
X1005840Y468630D01*
X928116Y468630D01*
X900684Y441198D01*
X900684Y420624D01*
X893826Y413766D01*
X880110Y413766D01*
X864108Y429768D01*
X941832Y582930D02*
X939700Y584200D01*
X863600Y431800D02*
X864108Y429768D01*
X864108Y555498D02*
X864108Y582930D01*
X864108Y555498D02*
X900684Y518922D01*
X900684Y448056D01*
X889254Y436626D01*
X889254Y432054D01*
X864108Y582930D02*
X863600Y584200D01*
X889254Y432054D02*
X889000Y431800D01*
X304038Y516636D02*
X304038Y582930D01*
X304038Y516636D02*
X292608Y505206D01*
X292608Y484632D01*
X331470Y445770D01*
X379476Y445770D01*
X404622Y420624D01*
X304038Y582930D02*
X304700Y584200D01*
X404622Y420624D02*
X406400Y419100D01*
X228600Y541782D02*
X228600Y584200D01*
X228600Y541782D02*
X329184Y441198D01*
X358902Y441198D01*
X381000Y419100D01*
X180594Y582930D02*
X153162Y582930D01*
X180594Y582930D02*
X326898Y436626D01*
X338328Y436626D01*
X354330Y420624D01*
X153162Y582930D02*
X152300Y584200D01*
X354330Y420624D02*
X355600Y419100D01*
X132588Y582930D02*
X77724Y582930D01*
X132588Y582930D02*
X217170Y498348D01*
X253746Y498348D01*
X331470Y420624D01*
X77724Y582930D02*
X76200Y584200D01*
X330200Y419100D02*
X331470Y420624D01*
X738378Y582930D02*
X768096Y582930D01*
X836676Y514350D01*
X836676Y509778D01*
X738378Y582930D02*
X736600Y584200D01*
X836676Y509778D02*
X838200Y508000D01*
X715518Y582930D02*
X685800Y582930D01*
X715518Y582930D02*
X763524Y534924D01*
X809244Y534924D01*
X827532Y516636D01*
X827532Y496062D01*
X834390Y489204D01*
X843534Y489204D01*
X861822Y507492D01*
X685800Y582930D02*
X685700Y584200D01*
X861822Y507492D02*
X863600Y508000D01*
X665226Y582930D02*
X610362Y582930D01*
X665226Y582930D02*
X717804Y530352D01*
X786384Y530352D01*
X802386Y514350D01*
X802386Y496062D01*
X818388Y480060D01*
X864108Y480060D01*
X886968Y502920D01*
X886968Y507492D01*
X610362Y582930D02*
X609600Y584200D01*
X886968Y507492D02*
X889000Y508000D01*
X304038Y420624D02*
X150876Y420624D01*
X101600Y469900D01*
X304038Y420624D02*
X304800Y419100D01*
X914400Y507492D02*
X978408Y507492D01*
X1003300Y482600D01*
X914400Y507492D02*
X914400Y508000D01*
X649224Y420624D02*
X484632Y420624D01*
X722376Y493776D02*
X736600Y508000D01*
X722376Y493776D02*
X649224Y420624D01*
X484632Y420624D02*
X482600Y419100D01*
X450342Y290322D02*
X445770Y290322D01*
X450342Y290322D02*
X493776Y246888D01*
X1024128Y246888D01*
X1078992Y192024D01*
X445770Y290322D02*
X444500Y292100D01*
X1078992Y192024D02*
X1079500Y190500D01*
X1081278Y192024D02*
X1129284Y192024D01*
X1130300Y190500D01*
X1081278Y192024D02*
X1079500Y190500D01*
X774954Y441198D02*
X722376Y493776D01*
X774954Y441198D02*
X774954Y422910D01*
X854964Y342900D01*
X1053846Y342900D01*
X1149858Y246888D01*
X1149858Y210312D01*
X1131570Y192024D01*
X1130300Y190500D01*
X763524Y477774D02*
X763524Y507492D01*
X763524Y477774D02*
X797814Y443484D01*
X797814Y418338D01*
X859536Y356616D01*
X1028700Y356616D01*
X763524Y507492D02*
X762000Y508000D01*
X1028700Y356616D02*
X1028700Y355600D01*
X461772Y418338D02*
X457200Y418338D01*
X461772Y418338D02*
X480060Y400050D01*
X683514Y400050D01*
X733806Y450342D01*
X740664Y450342D01*
X749808Y441198D01*
X749808Y420624D01*
X838962Y331470D01*
X1028700Y331470D01*
X457200Y418338D02*
X457200Y419100D01*
X1028700Y331470D02*
X1028700Y330200D01*
X475488Y290322D02*
X470916Y290322D01*
X475488Y290322D02*
X514350Y251460D01*
X1044702Y251460D01*
X1078992Y217170D01*
X470916Y290322D02*
X469900Y292100D01*
X1078992Y217170D02*
X1079500Y215900D01*
X1081278Y217170D02*
X1129284Y217170D01*
X1130300Y215900D01*
X1081278Y217170D02*
X1079500Y215900D01*
X114300Y101600D02*
X114300Y63500D01*
X253746Y64008D02*
X253746Y100584D01*
X253746Y64008D02*
X254000Y63500D01*
X253746Y100584D02*
X254000Y101600D01*
X368046Y100584D02*
X368046Y64008D01*
X368300Y63500D01*
X368046Y100584D02*
X368300Y101600D01*
X509778Y100584D02*
X509778Y64008D01*
X508000Y63500D01*
X509778Y100584D02*
X508000Y101600D01*
X649224Y100584D02*
X649224Y64008D01*
X647700Y63500D01*
X649224Y100584D02*
X647700Y101600D01*
X788670Y100584D02*
X788670Y64008D01*
X787400Y63500D01*
X788670Y100584D02*
X787400Y101600D01*
X928116Y100584D02*
X928116Y64008D01*
X927100Y63500D01*
X928116Y100584D02*
X927100Y101600D01*
X1067562Y100584D02*
X1067562Y64008D01*
X1066800Y63500D01*
X1067562Y100584D02*
X1066800Y101600D01*
X1042416Y100584D02*
X1042416Y64008D01*
X1041400Y63500D01*
X1042416Y100584D02*
X1041400Y101600D01*
X560070Y214884D02*
X546354Y214884D01*
X560070Y214884D02*
X660654Y114300D01*
X660654Y89154D01*
X669798Y80010D01*
X688086Y80010D01*
X724662Y43434D01*
X870966Y43434D01*
X889254Y61722D01*
X889254Y114300D01*
X900684Y125730D01*
X1017270Y125730D01*
X1041400Y101600D01*
X546354Y214884D02*
X546100Y215900D01*
X525780Y214884D02*
X521208Y214884D01*
X525780Y214884D02*
X619506Y121158D01*
X628650Y121158D01*
X635508Y114300D01*
X635508Y59436D01*
X642366Y52578D01*
X651510Y52578D01*
X660654Y61722D01*
X660654Y66294D01*
X669798Y75438D01*
X685800Y75438D01*
X722376Y38862D01*
X877824Y38862D01*
X900684Y61722D01*
X521208Y214884D02*
X520700Y215900D01*
X900684Y61722D02*
X901700Y63500D01*
X902970Y64008D02*
X902970Y100584D01*
X901700Y101600D01*
X902970Y64008D02*
X901700Y63500D01*
X763524Y64008D02*
X763524Y100584D01*
X763524Y64008D02*
X762000Y63500D01*
X763524Y100584D02*
X762000Y101600D01*
X500634Y217170D02*
X496062Y217170D01*
X500634Y217170D02*
X516636Y233172D01*
X630936Y233172D01*
X761238Y102870D01*
X496062Y217170D02*
X495300Y215900D01*
X761238Y102870D02*
X762000Y101600D01*
X560070Y125730D02*
X469900Y215900D01*
X560070Y125730D02*
X598932Y125730D01*
X621792Y102870D01*
X622300Y101600D01*
X624078Y100584D02*
X624078Y64008D01*
X622300Y63500D01*
X624078Y100584D02*
X622300Y101600D01*
X482346Y100584D02*
X482346Y82296D01*
X482346Y64008D01*
X482600Y63500D01*
X482346Y100584D02*
X482600Y101600D01*
X445770Y89154D02*
X445770Y214884D01*
X445770Y89154D02*
X452628Y82296D01*
X482346Y82296D01*
X445770Y214884D02*
X444500Y215900D01*
X342900Y101600D02*
X342900Y63500D01*
X418338Y182880D02*
X418338Y214884D01*
X418338Y182880D02*
X342900Y107442D01*
X342900Y101600D01*
X418338Y214884D02*
X419100Y215900D01*
X228600Y101600D02*
X228600Y63500D01*
X393192Y201168D02*
X393192Y214884D01*
X393192Y201168D02*
X292608Y100584D01*
X292608Y89154D01*
X278892Y75438D01*
X276606Y75438D01*
X265176Y64008D01*
X265176Y59436D01*
X258318Y52578D01*
X237744Y52578D01*
X228600Y61722D01*
X393192Y214884D02*
X393700Y215900D01*
X228600Y63500D02*
X228600Y61722D01*
X89154Y64008D02*
X89154Y100584D01*
X89154Y64008D02*
X88900Y63500D01*
X89154Y100584D02*
X88900Y101600D01*
X269748Y214884D02*
X368046Y214884D01*
X269748Y214884D02*
X176022Y121158D01*
X107442Y121158D01*
X89154Y102870D01*
X368046Y214884D02*
X368300Y215900D01*
X89154Y102870D02*
X88900Y101600D01*
X141732Y64008D02*
X164592Y64008D01*
X201168Y100584D01*
X141732Y64008D02*
X139700Y63500D01*
X201168Y100584D02*
X203200Y101600D01*
X64008Y100584D02*
X64008Y77724D01*
X77724Y64008D01*
X77724Y59436D01*
X84582Y52578D01*
X130302Y52578D01*
X139446Y61722D01*
X64008Y100584D02*
X63500Y101600D01*
X139700Y63500D02*
X139446Y61722D01*
X64008Y102870D02*
X64008Y112014D01*
X64008Y102870D02*
X63500Y101600D01*
X950976Y77724D02*
X950976Y64008D01*
X950976Y77724D02*
X939546Y89154D01*
X939546Y114300D01*
X946404Y121158D01*
X996696Y121158D01*
X1014984Y102870D01*
X952500Y63500D02*
X950976Y64008D01*
X1014984Y102870D02*
X1016000Y101600D01*
X1072134Y43434D02*
X1092200Y63500D01*
X1072134Y43434D02*
X971550Y43434D01*
X953262Y61722D01*
X952500Y63500D01*
X877824Y102870D02*
X877824Y109728D01*
X898398Y130302D01*
X1037844Y130302D01*
X1053846Y114300D01*
X1053846Y59436D01*
X1046988Y52578D01*
X1035558Y52578D01*
X1026414Y61722D01*
X1026414Y91440D01*
X1017270Y100584D01*
X877824Y102870D02*
X876300Y101600D01*
X1016000Y101600D02*
X1017270Y100584D01*
X317754Y100584D02*
X308610Y91440D01*
X281178Y64008D01*
X279400Y63500D01*
X317754Y100584D02*
X317500Y101600D01*
X381762Y61722D02*
X393192Y61722D01*
X381762Y61722D02*
X372618Y52578D01*
X338328Y52578D01*
X329184Y61722D01*
X329184Y70866D01*
X308610Y91440D01*
X393700Y63500D02*
X393192Y61722D01*
X802386Y61722D02*
X811530Y61722D01*
X802386Y61722D02*
X793242Y52578D01*
X774954Y52578D02*
X756666Y52578D01*
X774954Y52578D02*
X793242Y52578D01*
X756666Y52578D02*
X747522Y61722D01*
X747522Y91440D01*
X738378Y100584D01*
X811530Y61722D02*
X812800Y63500D01*
X738378Y100584D02*
X736600Y101600D01*
X566928Y61722D02*
X534924Y61722D01*
X566928Y61722D02*
X576072Y52578D01*
X601218Y52578D01*
X608076Y59436D01*
X608076Y91440D01*
X598932Y100584D01*
X534924Y61722D02*
X533400Y63500D01*
X596900Y101600D02*
X598932Y100584D01*
X667512Y61722D02*
X672084Y61722D01*
X667512Y61722D02*
X653796Y48006D01*
X619506Y48006D01*
X608076Y59436D01*
X672084Y61722D02*
X673100Y63500D01*
X475488Y121158D02*
X457200Y102870D01*
X475488Y121158D02*
X578358Y121158D01*
X596646Y102870D01*
X457200Y102870D02*
X457200Y101600D01*
X596646Y102870D02*
X596900Y101600D01*
X774954Y114300D02*
X774954Y52578D01*
X774954Y114300D02*
X651510Y237744D01*
X468630Y237744D01*
X459486Y228600D01*
X459486Y137160D01*
X475488Y121158D01*
X381762Y139446D02*
X381762Y61722D01*
X381762Y139446D02*
X432054Y189738D01*
X432054Y226314D01*
X438912Y233172D01*
X454914Y233172D01*
X459486Y228600D01*
X941832Y61722D02*
X950976Y61722D01*
X941832Y61722D02*
X914400Y34290D01*
X701802Y34290D01*
X674370Y61722D01*
X950976Y61722D02*
X952500Y63500D01*
X674370Y61722D02*
X673100Y63500D01*
X363474Y233172D02*
X356616Y226314D01*
X363474Y233172D02*
X425196Y233172D01*
X432054Y226314D01*
X356616Y226314D02*
X195786Y226314D01*
X66386Y102870D02*
X64008Y102870D01*
X195786Y226314D02*
X169100Y253000D01*
X71072Y101600D02*
X63500Y101600D01*
X90122Y120650D02*
X195786Y226314D01*
X90122Y120650D02*
X84166Y120650D01*
X77470Y113955D01*
X77470Y107998D01*
X71072Y101600D01*
X914400Y432054D02*
X976122Y432054D01*
X1001268Y457200D01*
X914400Y432054D02*
X914400Y431800D01*
X1001268Y457200D02*
X1003300Y457200D01*
X1081024Y420624D02*
X1129284Y420624D01*
X1081024Y420624D02*
X1079500Y419100D01*
X1129284Y420624D02*
X1130300Y419100D01*
X786384Y432054D02*
X786384Y448056D01*
X749808Y484632D01*
X749808Y518922D01*
X756666Y525780D01*
X770382Y525780D01*
X786384Y509778D01*
X786384Y432054D02*
X787400Y431800D01*
X787400Y508000D02*
X786384Y509778D01*
X937260Y418338D02*
X1078738Y418338D01*
X937260Y418338D02*
X914400Y395478D01*
X827532Y395478D01*
X802386Y420624D01*
X802386Y450342D02*
X802386Y489204D01*
X802386Y450342D02*
X802386Y420624D01*
X802386Y489204D02*
X788670Y502920D01*
X788670Y507492D01*
X1078738Y418338D02*
X1079500Y419100D01*
X788670Y507492D02*
X787400Y508000D01*
X905256Y420624D02*
X914400Y429768D01*
X905256Y420624D02*
X905256Y418338D01*
X896112Y409194D01*
X864108Y409194D01*
X850392Y422910D01*
X850392Y441198D01*
X841248Y450342D01*
X802386Y450342D01*
X914400Y431800D02*
X914400Y429768D01*
X322326Y477774D02*
X304800Y495300D01*
X322326Y477774D02*
X413766Y477774D01*
X429768Y493776D01*
X431800Y495300D01*
X393192Y292608D02*
X370332Y292608D01*
X368300Y292100D01*
X393192Y292608D02*
X393700Y292100D01*
X251460Y493776D02*
X102870Y493776D01*
X251460Y493776D02*
X317754Y427482D01*
X317754Y409194D01*
X326898Y400050D01*
X368046Y400050D02*
X411480Y400050D01*
X368046Y400050D02*
X326898Y400050D01*
X411480Y400050D02*
X429768Y418338D01*
X102870Y493776D02*
X101600Y495300D01*
X429768Y418338D02*
X431800Y419100D01*
X368046Y400050D02*
X368046Y292608D01*
X368300Y292100D01*
X413766Y436626D02*
X413766Y477774D01*
X413766Y436626D02*
X429768Y420624D01*
X431800Y419100D01*
X742950Y525780D02*
X749808Y518922D01*
X742950Y525780D02*
X461772Y525780D01*
X432054Y496062D01*
X431800Y495300D01*
X521208Y290322D02*
X525780Y290322D01*
X541782Y274320D01*
X998982Y274320D01*
X1028700Y304038D01*
X521208Y290322D02*
X520700Y292100D01*
X1028700Y304038D02*
X1028700Y304800D01*
X484632Y624078D02*
X484632Y649224D01*
X493776Y658368D01*
X484632Y624078D02*
X482600Y622300D01*
X493776Y658368D02*
X495300Y660400D01*
X548640Y610362D02*
X557784Y610362D01*
X548640Y610362D02*
X521208Y637794D01*
X521208Y658368D01*
X557784Y610362D02*
X558700Y609600D01*
X521208Y658368D02*
X520700Y660400D01*
X429768Y610362D02*
X422910Y610362D01*
X395478Y637794D01*
X395478Y658368D01*
X429768Y610362D02*
X431700Y609600D01*
X395478Y658368D02*
X393700Y660400D01*
X356616Y646938D02*
X356616Y624078D01*
X356616Y646938D02*
X368046Y658368D01*
X356616Y624078D02*
X355600Y622300D01*
X368046Y658368D02*
X368300Y660400D01*
X992124Y582930D02*
X992124Y516636D01*
X1019556Y489204D01*
X1019556Y457200D01*
X989838Y427482D01*
X932688Y427482D01*
X909828Y404622D01*
X861822Y404622D01*
X836676Y429768D01*
X990600Y584200D02*
X992124Y582930D01*
X838200Y431800D02*
X836676Y429768D01*
X1056132Y610362D02*
X1065276Y610362D01*
X1056132Y610362D02*
X1028700Y637794D01*
X1028700Y660400D01*
X1065276Y610362D02*
X1066700Y609600D01*
X992124Y624078D02*
X992124Y649224D01*
X1003300Y660400D01*
X992124Y624078D02*
X990600Y622300D01*
X939546Y610362D02*
X930402Y610362D01*
X902970Y637794D01*
X902970Y658368D01*
X939546Y610362D02*
X939700Y609600D01*
X902970Y658368D02*
X901700Y660400D01*
X864108Y646938D02*
X864108Y624078D01*
X864108Y646938D02*
X875538Y658368D01*
X864108Y624078D02*
X863600Y622300D01*
X875538Y658368D02*
X876300Y660400D01*
X482346Y493776D02*
X482346Y466344D01*
X445770Y429768D01*
X445770Y409194D01*
X459486Y395478D01*
X701802Y395478D01*
X736092Y429768D01*
X482346Y493776D02*
X482600Y495300D01*
X736600Y431800D02*
X736092Y429768D01*
X500634Y290322D02*
X496062Y290322D01*
X500634Y290322D02*
X534924Y256032D01*
X1049274Y256032D02*
X1065276Y256032D01*
X1049274Y256032D02*
X534924Y256032D01*
X1065276Y256032D02*
X1078992Y242316D01*
X496062Y290322D02*
X495300Y292100D01*
X1078992Y242316D02*
X1079500Y241300D01*
X1081278Y242316D02*
X1129284Y242316D01*
X1130300Y241300D01*
X1081278Y242316D02*
X1079500Y241300D01*
X738378Y425196D02*
X738378Y429768D01*
X738378Y425196D02*
X845820Y317754D01*
X1040130Y317754D01*
X1049274Y308610D01*
X1049274Y256032D01*
X738378Y429768D02*
X736600Y431800D01*
X457200Y64008D02*
X432054Y64008D01*
X420624Y75438D02*
X395478Y100584D01*
X420624Y75438D02*
X432054Y64008D01*
X457200Y64008D02*
X457200Y63500D01*
X395478Y100584D02*
X393700Y101600D01*
X571500Y64008D02*
X596646Y64008D01*
X544068Y91440D02*
X534924Y100584D01*
X544068Y91440D02*
X571500Y64008D01*
X596646Y64008D02*
X596900Y63500D01*
X534924Y100584D02*
X533400Y101600D01*
X468630Y61722D02*
X457200Y61722D01*
X468630Y61722D02*
X477774Y52578D01*
X512064Y52578D01*
X521208Y61722D01*
X521208Y68580D01*
X544068Y91440D01*
X457200Y63500D02*
X457200Y61722D01*
X420624Y292608D02*
X438912Y310896D01*
X525780Y310896D01*
X544068Y292608D01*
X420624Y292608D02*
X419100Y292100D01*
X544068Y292608D02*
X546100Y292100D01*
X68580Y61722D02*
X64008Y61722D01*
X68580Y61722D02*
X82296Y48006D01*
X187452Y48006D01*
X201168Y61722D01*
X64008Y61722D02*
X63500Y63500D01*
X201168Y61722D02*
X203200Y63500D01*
X292608Y61722D02*
X315468Y61722D01*
X292608Y61722D02*
X278892Y48006D01*
X217170Y48006D01*
X203454Y61722D01*
X315468Y61722D02*
X317500Y63500D01*
X203454Y61722D02*
X203200Y63500D01*
X180594Y102870D02*
X141732Y102870D01*
X180594Y102870D02*
X198882Y121158D01*
X208026Y121158D01*
X214884Y114300D01*
X214884Y75438D01*
X203454Y64008D01*
X141732Y102870D02*
X139700Y101600D01*
X203454Y64008D02*
X203200Y63500D01*
X260604Y121158D02*
X278892Y102870D01*
X260604Y121158D02*
X221742Y121158D01*
X214884Y114300D01*
X278892Y102870D02*
X279400Y101600D01*
X107442Y171450D02*
X50292Y114300D01*
X50292Y75438D01*
X61722Y64008D01*
X63500Y63500D01*
X413766Y290322D02*
X418338Y290322D01*
X413766Y290322D02*
X354330Y230886D01*
X418338Y290322D02*
X419100Y292100D01*
X420624Y75438D02*
X393192Y48006D01*
X331470Y48006D01*
X317754Y61722D01*
X317500Y63500D01*
X989838Y64008D02*
X1014984Y64008D01*
X989838Y64008D02*
X953262Y100584D01*
X1014984Y64008D02*
X1016000Y63500D01*
X953262Y100584D02*
X952500Y101600D01*
X1090422Y100584D02*
X1090422Y77724D01*
X1078992Y66294D01*
X1078992Y59436D01*
X1067562Y48006D01*
X1030986Y48006D01*
X1017270Y61722D01*
X1090422Y100584D02*
X1092200Y101600D01*
X1017270Y61722D02*
X1016000Y63500D01*
X736092Y64008D02*
X710946Y64008D01*
X674370Y100584D01*
X736092Y64008D02*
X736600Y63500D01*
X674370Y100584D02*
X673100Y101600D01*
X850392Y64008D02*
X875538Y64008D01*
X832104Y82296D02*
X812800Y101600D01*
X832104Y82296D02*
X841248Y73152D01*
X850392Y64008D01*
X875538Y64008D02*
X876300Y63500D01*
X752094Y48006D02*
X736600Y63500D01*
X752094Y48006D02*
X816102Y48006D01*
X841248Y73152D01*
X1058418Y134874D02*
X1078992Y114300D01*
X1090422Y102870D01*
X1058418Y134874D02*
X884682Y134874D01*
X832104Y82296D01*
X1090422Y102870D02*
X1092200Y101600D01*
X1081024Y445770D02*
X1129284Y445770D01*
X1081024Y445770D02*
X1079500Y444500D01*
X1129284Y445770D02*
X1130300Y444500D01*
X1076706Y621792D02*
X1067562Y621792D01*
X1076706Y621792D02*
X1129284Y569214D01*
X1129284Y534924D01*
X1067562Y621792D02*
X1066700Y622300D01*
X1129284Y534924D02*
X1130300Y533400D01*
X1131570Y484632D02*
X1131570Y445770D01*
X1131570Y484632D02*
X1149858Y502920D01*
X1149858Y514350D01*
X1131570Y532638D01*
X1131570Y445770D02*
X1130300Y444500D01*
X1131570Y532638D02*
X1130300Y533400D01*
X180594Y624078D02*
X153162Y624078D01*
X180594Y624078D02*
X237744Y681228D01*
X269748Y681228D01*
X304038Y646938D01*
X304038Y624078D01*
X153162Y624078D02*
X152300Y622300D01*
X304038Y624078D02*
X304700Y622300D01*
X429768Y624078D02*
X429768Y649224D01*
X397764Y681228D01*
X338328Y681228D01*
X304038Y646938D01*
X429768Y624078D02*
X431700Y622300D01*
X557784Y624078D02*
X557784Y649224D01*
X525780Y681228D01*
X461772Y681228D01*
X429768Y649224D01*
X557784Y624078D02*
X558700Y622300D01*
X683514Y624078D02*
X683514Y649224D01*
X651510Y681228D01*
X589788Y681228D01*
X557784Y649224D01*
X683514Y624078D02*
X685700Y622300D01*
X811530Y624078D02*
X811530Y649224D01*
X779526Y681228D01*
X715518Y681228D01*
X683514Y649224D01*
X811530Y624078D02*
X812700Y622300D01*
X939546Y624078D02*
X939546Y646938D01*
X905256Y681228D01*
X843534Y681228D01*
X811530Y649224D01*
X939546Y624078D02*
X939700Y622300D01*
X1065276Y624078D02*
X1065276Y649224D01*
X1033272Y681228D01*
X973836Y681228D01*
X939546Y646938D01*
X1065276Y624078D02*
X1066700Y622300D01*
X1154430Y189738D02*
X1078992Y114300D01*
X1154430Y189738D02*
X1154430Y420624D01*
X1131570Y443484D01*
X1130300Y444500D01*
X468630Y242316D02*
X420624Y290322D01*
X468630Y242316D02*
X672084Y242316D01*
X812800Y101600D01*
X420624Y290322D02*
X419100Y292100D01*
X128971Y253000D02*
X128485Y252515D01*
X127581Y251610D01*
X226314Y230886D02*
X354330Y230886D01*
X226314Y230886D02*
X196910Y260290D01*
X196910Y281519D01*
X150619Y327810D01*
X127581Y327810D02*
X110100Y310329D01*
X110100Y253000D01*
X127581Y327810D02*
X150619Y327810D01*
X110100Y253000D02*
X107442Y250342D01*
X107442Y171450D01*
X110100Y253000D02*
X128000Y253000D01*
X128485Y252515D01*
X941832Y598932D02*
X989838Y598932D01*
X941832Y598932D02*
X939700Y596900D01*
X989838Y598932D02*
X989838Y608076D01*
X990600Y609600D01*
X989838Y598932D02*
X990600Y596900D01*
X992124Y598932D02*
X1065276Y598932D01*
X1066700Y596900D01*
X992124Y598932D02*
X990600Y596900D01*
X1083564Y555498D02*
X1129284Y509778D01*
X1083564Y555498D02*
X1083564Y589788D01*
X1076706Y596646D01*
X1067562Y596646D01*
X1129284Y509778D02*
X1130300Y508000D01*
X1067562Y596646D02*
X1066700Y596900D01*
X228600Y598932D02*
X228600Y609600D01*
X75438Y608076D02*
X75438Y598932D01*
X76200Y596900D01*
X75438Y608076D02*
X76200Y609600D01*
X77724Y598932D02*
X150876Y598932D01*
X152300Y596900D01*
X77724Y598932D02*
X76200Y596900D01*
X153162Y598932D02*
X228600Y598932D01*
X153162Y598932D02*
X152300Y596900D01*
X813816Y598932D02*
X861822Y598932D01*
X813816Y598932D02*
X812700Y596900D01*
X861822Y598932D02*
X863600Y596900D01*
X864108Y598932D02*
X864108Y608076D01*
X863600Y609600D01*
X736092Y598932D02*
X685800Y598932D01*
X685700Y596900D01*
X736092Y598932D02*
X736092Y608076D01*
X736600Y609600D01*
X736092Y598932D02*
X736600Y596900D01*
X608076Y598932D02*
X560070Y598932D01*
X558700Y596900D01*
X608076Y598932D02*
X609600Y596900D01*
X610362Y598932D02*
X610362Y608076D01*
X609600Y609600D01*
X354330Y598932D02*
X306324Y598932D01*
X304700Y596900D01*
X354330Y598932D02*
X355600Y596900D01*
X356616Y598932D02*
X356616Y608076D01*
X355600Y609600D01*
X432054Y598932D02*
X482346Y598932D01*
X432054Y598932D02*
X431700Y596900D01*
X482346Y598932D02*
X482346Y608076D01*
X482600Y609600D01*
X482346Y598932D02*
X482600Y596900D01*
X429768Y598932D02*
X356616Y598932D01*
X355600Y596900D01*
X429768Y598932D02*
X431700Y596900D01*
X484632Y598932D02*
X557784Y598932D01*
X558700Y596900D01*
X484632Y598932D02*
X482600Y596900D01*
X610362Y598932D02*
X683514Y598932D01*
X685700Y596900D01*
X610362Y598932D02*
X609600Y596900D01*
X738378Y598932D02*
X811530Y598932D01*
X812700Y596900D01*
X738378Y598932D02*
X736600Y596900D01*
X304038Y598932D02*
X228600Y598932D01*
X228600Y596900D01*
X304038Y598932D02*
X304700Y596900D01*
X864108Y598932D02*
X939546Y598932D01*
X939700Y596900D01*
X864108Y598932D02*
X863600Y596900D01*
X304038Y610362D02*
X294894Y610362D01*
X267462Y637794D01*
X267462Y658368D01*
X304038Y610362D02*
X304700Y609600D01*
X267462Y658368D02*
X266700Y660400D01*
X228600Y646938D02*
X228600Y622300D01*
X228600Y646938D02*
X240030Y658368D01*
X241300Y660400D01*
X150876Y610362D02*
X141732Y610362D01*
X114300Y637794D01*
X114300Y660400D01*
X150876Y610362D02*
X152300Y609600D01*
X77724Y624078D02*
X77724Y649224D01*
X88900Y660400D01*
X77724Y624078D02*
X76200Y622300D01*
X813816Y582930D02*
X875538Y521208D01*
X875538Y498348D01*
X861822Y484632D01*
X832104Y484632D01*
X813816Y502920D01*
X813816Y507492D01*
X813816Y582930D02*
X812700Y584200D01*
X812800Y508000D02*
X813816Y507492D01*
X610362Y624078D02*
X610362Y646938D01*
X621792Y658368D01*
X610362Y624078D02*
X609600Y622300D01*
X621792Y658368D02*
X622300Y660400D01*
X676656Y610362D02*
X683514Y610362D01*
X676656Y610362D02*
X649224Y637794D01*
X649224Y658368D01*
X683514Y610362D02*
X685700Y609600D01*
X649224Y658368D02*
X647700Y660400D01*
X738378Y649224D02*
X738378Y624078D01*
X738378Y649224D02*
X747522Y658368D01*
X738378Y624078D02*
X736600Y622300D01*
X747522Y658368D02*
X749300Y660400D01*
X802386Y610362D02*
X811530Y610362D01*
X802386Y610362D02*
X774954Y637794D01*
X774954Y658368D01*
X811530Y610362D02*
X812700Y609600D01*
X774954Y658368D02*
X774700Y660400D01*
X429768Y582930D02*
X429768Y569214D01*
X356616Y496062D01*
X429768Y582930D02*
X431700Y584200D01*
X356616Y496062D02*
X355600Y495300D01*
M02*
