G04 EAGLE Gerber RS-274X export*
G75*
%MOMM*%
%FSLAX34Y34*%
%LPD*%
%INSolderpaste Top*%
%IPPOS*%
%AMOC8*
5,1,8,0,0,1.08239X$1,22.5*%
G01*
%ADD10R,2.500000X0.500000*%


D10*
X482600Y622300D03*
X482600Y609600D03*
X482600Y596900D03*
X482600Y584200D03*
X558700Y622300D03*
X558700Y609600D03*
X558700Y596900D03*
X558700Y584200D03*
X355600Y622300D03*
X355600Y609600D03*
X355600Y596900D03*
X355600Y584200D03*
X431700Y622300D03*
X431700Y609600D03*
X431700Y596900D03*
X431700Y584200D03*
X990600Y622300D03*
X990600Y609600D03*
X990600Y596900D03*
X990600Y584200D03*
X1066700Y622300D03*
X1066700Y609600D03*
X1066700Y596900D03*
X1066700Y584200D03*
X863600Y622300D03*
X863600Y609600D03*
X863600Y596900D03*
X863600Y584200D03*
X939700Y622300D03*
X939700Y609600D03*
X939700Y596900D03*
X939700Y584200D03*
X228600Y622300D03*
X228600Y609600D03*
X228600Y596900D03*
X228600Y584200D03*
X304700Y622300D03*
X304700Y609600D03*
X304700Y596900D03*
X304700Y584200D03*
X76200Y622300D03*
X76200Y609600D03*
X76200Y596900D03*
X76200Y584200D03*
X152300Y622300D03*
X152300Y609600D03*
X152300Y596900D03*
X152300Y584200D03*
X736600Y622300D03*
X736600Y609600D03*
X736600Y596900D03*
X736600Y584200D03*
X812700Y622300D03*
X812700Y609600D03*
X812700Y596900D03*
X812700Y584200D03*
X609600Y622300D03*
X609600Y609600D03*
X609600Y596900D03*
X609600Y584200D03*
X685700Y622300D03*
X685700Y609600D03*
X685700Y596900D03*
X685700Y584200D03*
M02*
