M48
;GenerationSoftware,Autodesk,EAGLE,9.3.2*%
;CreationDate,2019-08-29T02:53:48Z*%
FMAT,2
ICI,OFF
METRIC,TZ,000.000
T5C0.800
T4C0.813
T3C1.000
T2C1.016
T1C3.000
%
G90
M71
T1
X2540Y71120
X116840Y71120
X116840Y2540
X2540Y2540
T2
X113030Y41910
X113030Y44450
X113030Y24130
X113030Y21590
X113030Y19050
X107950Y24130
X107950Y21590
X107950Y19050
X64770Y66040
X62230Y66040
X39370Y10160
X36830Y10160
X102870Y35560
X102870Y33020
X102870Y30480
X110490Y41910
X110490Y44450
X27940Y10160
X25400Y10160
X13970Y10160
X11430Y10160
X113030Y50800
X113030Y53340
X34290Y10160
X101600Y10160
X104140Y10160
X87630Y10160
X90170Y10160
X73660Y10160
X76200Y10160
X59690Y10160
X62230Y10160
X45720Y10160
X48260Y10160
X31750Y10160
X20320Y10160
X22860Y10160
X6350Y10160
X8890Y10160
X109220Y10160
X106680Y10160
X95250Y10160
X92710Y10160
X81280Y10160
X78740Y10160
X67310Y10160
X64770Y10160
X53340Y10160
X50800Y10160
X52070Y66040
X49530Y66040
X39370Y66040
X36830Y66040
X102870Y66040
X100330Y66040
X90170Y66040
X87630Y66040
X26670Y66040
X24130Y66040
X11430Y66040
X8890Y66040
X77470Y66040
X74930Y66040
T3
X16970Y20320
T4
X100330Y48260
X10160Y49530
X10160Y46990
X91440Y50800
X88900Y50800
X81280Y50800
X78740Y50800
X86360Y50800
X83820Y50800
X76200Y50800
X73660Y50800
X73660Y43180
X76200Y43180
X78740Y43180
X81280Y43180
X83820Y43180
X86360Y43180
X88900Y43180
X91440Y43180
X30480Y41910
X33020Y41910
X40640Y41910
X43180Y41910
X35560Y41910
X38100Y41910
X45720Y41910
X48260Y41910
X48260Y49530
X45720Y49530
X43180Y49530
X40640Y49530
X38100Y49530
X35560Y49530
X33020Y49530
X30480Y49530
X36830Y21590
X39370Y21590
X46990Y21590
X49530Y21590
X41910Y21590
X44450Y21590
X52070Y21590
X54610Y21590
X44450Y29210
X54610Y29210
X41910Y29210
X39370Y29210
X36830Y29210
X52070Y29210
X101600Y6350
X104140Y6350
X50800Y6350
X53340Y6350
X31750Y6350
X34290Y6350
X36830Y6350
X39370Y6350
X20320Y6350
X22860Y6350
X25400Y6350
X27940Y6350
X6350Y6350
X8890Y6350
X11430Y6350
X13970Y6350
X106680Y6350
X100330Y45720
X87630Y6350
X90170Y6350
X92710Y6350
X95250Y6350
X73660Y6350
X76200Y6350
X78740Y6350
X81280Y6350
X59690Y6350
X62230Y6350
X64770Y6350
X67310Y6350
X45720Y6350
X48260Y6350
X49530Y29210
X46990Y29210
X109220Y6350
T5
X10970Y20320
X13970Y15520
M30