G04 EAGLE Gerber RS-274X export*
G75*
%MOMM*%
%FSLAX34Y34*%
%LPD*%
%IN*%
%IPPOS*%
%AMOC8*
5,1,8,0,0,1.08239X$1,22.5*%
G01*
%ADD10C,0.254000*%


D10*
X0Y0D02*
X1015800Y0D01*
X1015800Y733300D01*
X0Y733300D01*
X0Y0D01*
X110100Y188200D02*
X113700Y188200D01*
X113700Y218200D01*
X110100Y218200D01*
X110100Y188200D01*
X40400Y710664D02*
X40324Y709596D01*
X40171Y708535D01*
X39943Y707488D01*
X39641Y706460D01*
X39267Y705456D01*
X38822Y704481D01*
X38308Y703541D01*
X37729Y702640D01*
X37087Y701782D01*
X36385Y700972D01*
X35628Y700215D01*
X34818Y699513D01*
X33960Y698871D01*
X33059Y698292D01*
X32119Y697778D01*
X31144Y697333D01*
X30140Y696959D01*
X29112Y696657D01*
X28065Y696429D01*
X27004Y696276D01*
X25936Y696200D01*
X24864Y696200D01*
X23796Y696276D01*
X22735Y696429D01*
X21688Y696657D01*
X20660Y696959D01*
X19656Y697333D01*
X18681Y697778D01*
X17741Y698292D01*
X16840Y698871D01*
X15982Y699513D01*
X15172Y700215D01*
X14415Y700972D01*
X13713Y701782D01*
X13071Y702640D01*
X12492Y703541D01*
X11978Y704481D01*
X11533Y705456D01*
X11159Y706460D01*
X10857Y707488D01*
X10629Y708535D01*
X10476Y709596D01*
X10400Y710664D01*
X10400Y711736D01*
X10476Y712804D01*
X10629Y713865D01*
X10857Y714912D01*
X11159Y715940D01*
X11533Y716944D01*
X11978Y717919D01*
X12492Y718859D01*
X13071Y719760D01*
X13713Y720618D01*
X14415Y721428D01*
X15172Y722185D01*
X15982Y722887D01*
X16840Y723529D01*
X17741Y724108D01*
X18681Y724622D01*
X19656Y725067D01*
X20660Y725441D01*
X21688Y725743D01*
X22735Y725971D01*
X23796Y726124D01*
X24864Y726200D01*
X25936Y726200D01*
X27004Y726124D01*
X28065Y725971D01*
X29112Y725743D01*
X30140Y725441D01*
X31144Y725067D01*
X32119Y724622D01*
X33059Y724108D01*
X33960Y723529D01*
X34818Y722887D01*
X35628Y722185D01*
X36385Y721428D01*
X37087Y720618D01*
X37729Y719760D01*
X38308Y718859D01*
X38822Y717919D01*
X39267Y716944D01*
X39641Y715940D01*
X39943Y714912D01*
X40171Y713865D01*
X40324Y712804D01*
X40400Y711736D01*
X40400Y710664D01*
X1005600Y710664D02*
X1005524Y709596D01*
X1005371Y708535D01*
X1005143Y707488D01*
X1004841Y706460D01*
X1004467Y705456D01*
X1004022Y704481D01*
X1003508Y703541D01*
X1002929Y702640D01*
X1002287Y701782D01*
X1001585Y700972D01*
X1000828Y700215D01*
X1000018Y699513D01*
X999160Y698871D01*
X998259Y698292D01*
X997319Y697778D01*
X996344Y697333D01*
X995340Y696959D01*
X994312Y696657D01*
X993265Y696429D01*
X992204Y696276D01*
X991136Y696200D01*
X990064Y696200D01*
X988996Y696276D01*
X987935Y696429D01*
X986888Y696657D01*
X985860Y696959D01*
X984856Y697333D01*
X983881Y697778D01*
X982941Y698292D01*
X982040Y698871D01*
X981182Y699513D01*
X980372Y700215D01*
X979615Y700972D01*
X978913Y701782D01*
X978271Y702640D01*
X977692Y703541D01*
X977178Y704481D01*
X976733Y705456D01*
X976359Y706460D01*
X976057Y707488D01*
X975829Y708535D01*
X975676Y709596D01*
X975600Y710664D01*
X975600Y711736D01*
X975676Y712804D01*
X975829Y713865D01*
X976057Y714912D01*
X976359Y715940D01*
X976733Y716944D01*
X977178Y717919D01*
X977692Y718859D01*
X978271Y719760D01*
X978913Y720618D01*
X979615Y721428D01*
X980372Y722185D01*
X981182Y722887D01*
X982040Y723529D01*
X982941Y724108D01*
X983881Y724622D01*
X984856Y725067D01*
X985860Y725441D01*
X986888Y725743D01*
X987935Y725971D01*
X988996Y726124D01*
X990064Y726200D01*
X991136Y726200D01*
X992204Y726124D01*
X993265Y725971D01*
X994312Y725743D01*
X995340Y725441D01*
X996344Y725067D01*
X997319Y724622D01*
X998259Y724108D01*
X999160Y723529D01*
X1000018Y722887D01*
X1000828Y722185D01*
X1001585Y721428D01*
X1002287Y720618D01*
X1002929Y719760D01*
X1003508Y718859D01*
X1004022Y717919D01*
X1004467Y716944D01*
X1004841Y715940D01*
X1005143Y714912D01*
X1005371Y713865D01*
X1005524Y712804D01*
X1005600Y711736D01*
X1005600Y710664D01*
X1005600Y24864D02*
X1005524Y23796D01*
X1005371Y22735D01*
X1005143Y21688D01*
X1004841Y20660D01*
X1004467Y19656D01*
X1004022Y18681D01*
X1003508Y17741D01*
X1002929Y16840D01*
X1002287Y15982D01*
X1001585Y15172D01*
X1000828Y14415D01*
X1000018Y13713D01*
X999160Y13071D01*
X998259Y12492D01*
X997319Y11978D01*
X996344Y11533D01*
X995340Y11159D01*
X994312Y10857D01*
X993265Y10629D01*
X992204Y10476D01*
X991136Y10400D01*
X990064Y10400D01*
X988996Y10476D01*
X987935Y10629D01*
X986888Y10857D01*
X985860Y11159D01*
X984856Y11533D01*
X983881Y11978D01*
X982941Y12492D01*
X982040Y13071D01*
X981182Y13713D01*
X980372Y14415D01*
X979615Y15172D01*
X978913Y15982D01*
X978271Y16840D01*
X977692Y17741D01*
X977178Y18681D01*
X976733Y19656D01*
X976359Y20660D01*
X976057Y21688D01*
X975829Y22735D01*
X975676Y23796D01*
X975600Y24864D01*
X975600Y25936D01*
X975676Y27004D01*
X975829Y28065D01*
X976057Y29112D01*
X976359Y30140D01*
X976733Y31144D01*
X977178Y32119D01*
X977692Y33059D01*
X978271Y33960D01*
X978913Y34818D01*
X979615Y35628D01*
X980372Y36385D01*
X981182Y37087D01*
X982040Y37729D01*
X982941Y38308D01*
X983881Y38822D01*
X984856Y39267D01*
X985860Y39641D01*
X986888Y39943D01*
X987935Y40171D01*
X988996Y40324D01*
X990064Y40400D01*
X991136Y40400D01*
X992204Y40324D01*
X993265Y40171D01*
X994312Y39943D01*
X995340Y39641D01*
X996344Y39267D01*
X997319Y38822D01*
X998259Y38308D01*
X999160Y37729D01*
X1000018Y37087D01*
X1000828Y36385D01*
X1001585Y35628D01*
X1002287Y34818D01*
X1002929Y33960D01*
X1003508Y33059D01*
X1004022Y32119D01*
X1004467Y31144D01*
X1004841Y30140D01*
X1005143Y29112D01*
X1005371Y28065D01*
X1005524Y27004D01*
X1005600Y25936D01*
X1005600Y24864D01*
X40400Y24864D02*
X40324Y23796D01*
X40171Y22735D01*
X39943Y21688D01*
X39641Y20660D01*
X39267Y19656D01*
X38822Y18681D01*
X38308Y17741D01*
X37729Y16840D01*
X37087Y15982D01*
X36385Y15172D01*
X35628Y14415D01*
X34818Y13713D01*
X33960Y13071D01*
X33059Y12492D01*
X32119Y11978D01*
X31144Y11533D01*
X30140Y11159D01*
X29112Y10857D01*
X28065Y10629D01*
X27004Y10476D01*
X25936Y10400D01*
X24864Y10400D01*
X23796Y10476D01*
X22735Y10629D01*
X21688Y10857D01*
X20660Y11159D01*
X19656Y11533D01*
X18681Y11978D01*
X17741Y12492D01*
X16840Y13071D01*
X15982Y13713D01*
X15172Y14415D01*
X14415Y15172D01*
X13713Y15982D01*
X13071Y16840D01*
X12492Y17741D01*
X11978Y18681D01*
X11533Y19656D01*
X11159Y20660D01*
X10857Y21688D01*
X10629Y22735D01*
X10476Y23796D01*
X10400Y24864D01*
X10400Y25936D01*
X10476Y27004D01*
X10629Y28065D01*
X10857Y29112D01*
X11159Y30140D01*
X11533Y31144D01*
X11978Y32119D01*
X12492Y33059D01*
X13071Y33960D01*
X13713Y34818D01*
X14415Y35628D01*
X15172Y36385D01*
X15982Y37087D01*
X16840Y37729D01*
X17741Y38308D01*
X18681Y38822D01*
X19656Y39267D01*
X20660Y39641D01*
X21688Y39943D01*
X22735Y40171D01*
X23796Y40324D01*
X24864Y40400D01*
X25936Y40400D01*
X27004Y40324D01*
X28065Y40171D01*
X29112Y39943D01*
X30140Y39641D01*
X31144Y39267D01*
X32119Y38822D01*
X33059Y38308D01*
X33960Y37729D01*
X34818Y37087D01*
X35628Y36385D01*
X36385Y35628D01*
X37087Y34818D01*
X37729Y33960D01*
X38308Y33059D01*
X38822Y32119D01*
X39267Y31144D01*
X39641Y30140D01*
X39943Y29112D01*
X40171Y28065D01*
X40324Y27004D01*
X40400Y25936D01*
X40400Y24864D01*
M02*
