G04 EAGLE Gerber RS-274X export*
G75*
%MOMM*%
%FSLAX34Y34*%
%LPD*%
%INSilkscreen Bottom*%
%IPPOS*%
%AMOC8*
5,1,8,0,0,1.08239X$1,22.5*%
G01*
%ADD10C,0.152400*%
%ADD11C,0.304800*%
%ADD12C,0.127000*%


D10*
X82550Y504190D02*
X69850Y504190D01*
X69710Y504188D01*
X69570Y504182D01*
X69430Y504173D01*
X69291Y504159D01*
X69152Y504142D01*
X69014Y504121D01*
X68876Y504096D01*
X68739Y504067D01*
X68603Y504035D01*
X68468Y503998D01*
X68334Y503958D01*
X68201Y503915D01*
X68069Y503867D01*
X67938Y503817D01*
X67809Y503762D01*
X67682Y503704D01*
X67556Y503643D01*
X67432Y503578D01*
X67310Y503509D01*
X67190Y503438D01*
X67072Y503363D01*
X66955Y503285D01*
X66841Y503203D01*
X66730Y503119D01*
X66621Y503031D01*
X66514Y502941D01*
X66409Y502847D01*
X66308Y502751D01*
X66209Y502652D01*
X66113Y502551D01*
X66019Y502446D01*
X65929Y502339D01*
X65841Y502230D01*
X65757Y502119D01*
X65675Y502005D01*
X65597Y501888D01*
X65522Y501770D01*
X65451Y501650D01*
X65382Y501528D01*
X65317Y501404D01*
X65256Y501278D01*
X65198Y501151D01*
X65143Y501022D01*
X65093Y500891D01*
X65045Y500759D01*
X65002Y500626D01*
X64962Y500492D01*
X64925Y500357D01*
X64893Y500221D01*
X64864Y500084D01*
X64839Y499946D01*
X64818Y499808D01*
X64801Y499669D01*
X64787Y499530D01*
X64778Y499390D01*
X64772Y499250D01*
X64770Y499110D01*
X82550Y504190D02*
X82690Y504188D01*
X82830Y504182D01*
X82970Y504173D01*
X83109Y504159D01*
X83248Y504142D01*
X83386Y504121D01*
X83524Y504096D01*
X83661Y504067D01*
X83797Y504035D01*
X83932Y503998D01*
X84066Y503958D01*
X84199Y503915D01*
X84331Y503867D01*
X84462Y503817D01*
X84591Y503762D01*
X84718Y503704D01*
X84844Y503643D01*
X84968Y503578D01*
X85090Y503509D01*
X85210Y503438D01*
X85328Y503363D01*
X85445Y503285D01*
X85559Y503203D01*
X85670Y503119D01*
X85779Y503031D01*
X85886Y502941D01*
X85991Y502847D01*
X86092Y502751D01*
X86191Y502652D01*
X86287Y502551D01*
X86381Y502446D01*
X86471Y502339D01*
X86559Y502230D01*
X86643Y502119D01*
X86725Y502005D01*
X86803Y501888D01*
X86878Y501770D01*
X86949Y501650D01*
X87018Y501528D01*
X87083Y501404D01*
X87144Y501278D01*
X87202Y501151D01*
X87257Y501022D01*
X87307Y500891D01*
X87355Y500759D01*
X87398Y500626D01*
X87438Y500492D01*
X87475Y500357D01*
X87507Y500221D01*
X87536Y500084D01*
X87561Y499946D01*
X87582Y499808D01*
X87599Y499669D01*
X87613Y499530D01*
X87622Y499390D01*
X87628Y499250D01*
X87630Y499110D01*
X64770Y499110D02*
X64770Y466090D01*
X69850Y461010D02*
X82550Y461010D01*
X87630Y466090D02*
X87630Y499110D01*
X64770Y466090D02*
X64772Y465950D01*
X64778Y465810D01*
X64787Y465670D01*
X64801Y465531D01*
X64818Y465392D01*
X64839Y465254D01*
X64864Y465116D01*
X64893Y464979D01*
X64925Y464843D01*
X64962Y464708D01*
X65002Y464574D01*
X65045Y464441D01*
X65093Y464309D01*
X65143Y464178D01*
X65198Y464049D01*
X65256Y463922D01*
X65317Y463796D01*
X65382Y463672D01*
X65451Y463550D01*
X65522Y463430D01*
X65597Y463312D01*
X65675Y463195D01*
X65757Y463081D01*
X65841Y462970D01*
X65929Y462861D01*
X66019Y462754D01*
X66113Y462649D01*
X66209Y462548D01*
X66308Y462449D01*
X66409Y462353D01*
X66514Y462259D01*
X66621Y462169D01*
X66730Y462081D01*
X66841Y461997D01*
X66955Y461915D01*
X67072Y461837D01*
X67190Y461762D01*
X67310Y461691D01*
X67432Y461622D01*
X67556Y461557D01*
X67682Y461496D01*
X67809Y461438D01*
X67938Y461383D01*
X68069Y461333D01*
X68201Y461285D01*
X68334Y461242D01*
X68468Y461202D01*
X68603Y461165D01*
X68739Y461133D01*
X68876Y461104D01*
X69014Y461079D01*
X69152Y461058D01*
X69291Y461041D01*
X69430Y461027D01*
X69570Y461018D01*
X69710Y461012D01*
X69850Y461010D01*
X82550Y461010D02*
X82690Y461012D01*
X82830Y461018D01*
X82970Y461027D01*
X83109Y461041D01*
X83248Y461058D01*
X83386Y461079D01*
X83524Y461104D01*
X83661Y461133D01*
X83797Y461165D01*
X83932Y461202D01*
X84066Y461242D01*
X84199Y461285D01*
X84331Y461333D01*
X84462Y461383D01*
X84591Y461438D01*
X84718Y461496D01*
X84844Y461557D01*
X84968Y461622D01*
X85090Y461691D01*
X85210Y461762D01*
X85328Y461837D01*
X85445Y461915D01*
X85559Y461997D01*
X85670Y462081D01*
X85779Y462169D01*
X85886Y462259D01*
X85991Y462353D01*
X86092Y462449D01*
X86191Y462548D01*
X86287Y462649D01*
X86381Y462754D01*
X86471Y462861D01*
X86559Y462970D01*
X86643Y463081D01*
X86725Y463195D01*
X86803Y463312D01*
X86878Y463430D01*
X86949Y463550D01*
X87018Y463672D01*
X87083Y463796D01*
X87144Y463922D01*
X87202Y464049D01*
X87257Y464178D01*
X87307Y464309D01*
X87355Y464441D01*
X87398Y464574D01*
X87438Y464708D01*
X87475Y464843D01*
X87507Y464979D01*
X87536Y465116D01*
X87561Y465254D01*
X87582Y465392D01*
X87599Y465531D01*
X87613Y465670D01*
X87622Y465810D01*
X87628Y465950D01*
X87630Y466090D01*
D11*
X83820Y485648D02*
X68580Y485648D01*
X68580Y479298D02*
X83820Y479298D01*
D12*
X50165Y486373D02*
X50165Y488913D01*
X50165Y486373D02*
X50167Y486273D01*
X50173Y486174D01*
X50183Y486074D01*
X50196Y485976D01*
X50214Y485877D01*
X50235Y485780D01*
X50260Y485684D01*
X50289Y485588D01*
X50322Y485494D01*
X50358Y485401D01*
X50398Y485310D01*
X50442Y485220D01*
X50489Y485132D01*
X50539Y485046D01*
X50593Y484962D01*
X50650Y484880D01*
X50710Y484801D01*
X50774Y484723D01*
X50840Y484649D01*
X50909Y484577D01*
X50981Y484508D01*
X51055Y484442D01*
X51133Y484378D01*
X51212Y484318D01*
X51294Y484261D01*
X51378Y484207D01*
X51464Y484157D01*
X51552Y484110D01*
X51642Y484066D01*
X51733Y484026D01*
X51826Y483990D01*
X51920Y483957D01*
X52016Y483928D01*
X52112Y483903D01*
X52209Y483882D01*
X52308Y483864D01*
X52406Y483851D01*
X52506Y483841D01*
X52605Y483835D01*
X52705Y483833D01*
X59055Y483833D01*
X59155Y483835D01*
X59254Y483841D01*
X59354Y483851D01*
X59452Y483864D01*
X59551Y483882D01*
X59648Y483903D01*
X59744Y483928D01*
X59840Y483957D01*
X59934Y483990D01*
X60027Y484026D01*
X60118Y484066D01*
X60208Y484110D01*
X60296Y484157D01*
X60382Y484207D01*
X60466Y484261D01*
X60548Y484318D01*
X60627Y484378D01*
X60705Y484442D01*
X60779Y484508D01*
X60851Y484577D01*
X60920Y484649D01*
X60986Y484723D01*
X61050Y484801D01*
X61110Y484880D01*
X61167Y484962D01*
X61221Y485046D01*
X61271Y485132D01*
X61318Y485220D01*
X61362Y485310D01*
X61402Y485401D01*
X61438Y485494D01*
X61471Y485588D01*
X61500Y485684D01*
X61525Y485780D01*
X61546Y485877D01*
X61564Y485976D01*
X61577Y486074D01*
X61587Y486174D01*
X61593Y486273D01*
X61595Y486373D01*
X61595Y488913D01*
X61596Y496888D02*
X61594Y496992D01*
X61588Y497097D01*
X61579Y497201D01*
X61566Y497304D01*
X61548Y497407D01*
X61528Y497509D01*
X61503Y497611D01*
X61475Y497711D01*
X61443Y497811D01*
X61407Y497909D01*
X61368Y498006D01*
X61326Y498101D01*
X61280Y498195D01*
X61230Y498287D01*
X61178Y498377D01*
X61122Y498465D01*
X61062Y498551D01*
X61000Y498635D01*
X60935Y498716D01*
X60867Y498795D01*
X60795Y498872D01*
X60722Y498945D01*
X60645Y499017D01*
X60566Y499085D01*
X60485Y499150D01*
X60401Y499212D01*
X60315Y499272D01*
X60227Y499328D01*
X60137Y499380D01*
X60045Y499430D01*
X59951Y499476D01*
X59856Y499518D01*
X59759Y499557D01*
X59661Y499593D01*
X59561Y499625D01*
X59461Y499653D01*
X59359Y499678D01*
X59257Y499698D01*
X59154Y499716D01*
X59051Y499729D01*
X58947Y499738D01*
X58842Y499744D01*
X58738Y499746D01*
X61595Y496888D02*
X61593Y496770D01*
X61587Y496651D01*
X61578Y496533D01*
X61565Y496416D01*
X61547Y496299D01*
X61527Y496182D01*
X61502Y496066D01*
X61474Y495951D01*
X61441Y495838D01*
X61406Y495725D01*
X61366Y495613D01*
X61324Y495503D01*
X61277Y495394D01*
X61227Y495286D01*
X61174Y495181D01*
X61117Y495077D01*
X61057Y494975D01*
X60994Y494875D01*
X60927Y494777D01*
X60858Y494681D01*
X60785Y494588D01*
X60709Y494497D01*
X60631Y494408D01*
X60549Y494322D01*
X60465Y494239D01*
X60379Y494158D01*
X60289Y494081D01*
X60198Y494006D01*
X60104Y493934D01*
X60007Y493865D01*
X59909Y493800D01*
X59808Y493737D01*
X59705Y493678D01*
X59601Y493622D01*
X59495Y493570D01*
X59387Y493521D01*
X59278Y493476D01*
X59167Y493434D01*
X59055Y493396D01*
X56516Y498793D02*
X56591Y498869D01*
X56670Y498944D01*
X56751Y499015D01*
X56835Y499084D01*
X56921Y499149D01*
X57009Y499211D01*
X57099Y499271D01*
X57191Y499327D01*
X57286Y499380D01*
X57382Y499429D01*
X57480Y499475D01*
X57579Y499518D01*
X57680Y499557D01*
X57782Y499592D01*
X57885Y499624D01*
X57989Y499652D01*
X58094Y499677D01*
X58201Y499698D01*
X58307Y499715D01*
X58414Y499728D01*
X58522Y499737D01*
X58630Y499743D01*
X58738Y499745D01*
X56515Y498793D02*
X50165Y493395D01*
X50165Y499745D01*
M02*
