G04 EAGLE Gerber RS-274X export*
G75*
%MOMM*%
%FSLAX34Y34*%
%LPD*%
%INBottom Copper*%
%IPPOS*%
%AMOC8*
5,1,8,0,0,1.08239X$1,22.5*%
G01*
%ADD10C,1.524000*%
%ADD11P,1.429621X8X112.500000*%
%ADD12P,1.429621X8X292.500000*%
%ADD13C,1.320800*%
%ADD14P,1.429621X8X22.500000*%
%ADD15C,4.800000*%


D10*
X1137920Y419100D02*
X1122680Y419100D01*
X1122680Y444500D02*
X1137920Y444500D01*
X1137920Y241300D02*
X1122680Y241300D01*
X1122680Y215900D02*
X1137920Y215900D01*
X1137920Y190500D02*
X1122680Y190500D01*
X1087120Y241300D02*
X1071880Y241300D01*
X1071880Y215900D02*
X1087120Y215900D01*
X1087120Y190500D02*
X1071880Y190500D01*
D11*
X1003300Y457200D03*
X1003300Y482600D03*
D12*
X101600Y495300D03*
X101600Y469900D03*
D10*
X1021080Y355600D02*
X1036320Y355600D01*
X1036320Y330200D02*
X1021080Y330200D01*
X1021080Y304800D02*
X1036320Y304800D01*
X1071880Y419100D02*
X1087120Y419100D01*
X1087120Y444500D02*
X1071880Y444500D01*
D13*
X914400Y501396D02*
X914400Y514604D01*
X889000Y514604D02*
X889000Y501396D01*
X812800Y501396D02*
X812800Y514604D01*
X787400Y514604D02*
X787400Y501396D01*
X863600Y501396D02*
X863600Y514604D01*
X838200Y514604D02*
X838200Y501396D01*
X762000Y501396D02*
X762000Y514604D01*
X736600Y514604D02*
X736600Y501396D01*
X736600Y438404D02*
X736600Y425196D01*
X762000Y425196D02*
X762000Y438404D01*
X787400Y438404D02*
X787400Y425196D01*
X812800Y425196D02*
X812800Y438404D01*
X838200Y438404D02*
X838200Y425196D01*
X863600Y425196D02*
X863600Y438404D01*
X889000Y438404D02*
X889000Y425196D01*
X914400Y425196D02*
X914400Y438404D01*
X304800Y425704D02*
X304800Y412496D01*
X330200Y412496D02*
X330200Y425704D01*
X406400Y425704D02*
X406400Y412496D01*
X431800Y412496D02*
X431800Y425704D01*
X355600Y425704D02*
X355600Y412496D01*
X381000Y412496D02*
X381000Y425704D01*
X457200Y425704D02*
X457200Y412496D01*
X482600Y412496D02*
X482600Y425704D01*
X482600Y488696D02*
X482600Y501904D01*
X457200Y501904D02*
X457200Y488696D01*
X431800Y488696D02*
X431800Y501904D01*
X406400Y501904D02*
X406400Y488696D01*
X381000Y488696D02*
X381000Y501904D01*
X355600Y501904D02*
X355600Y488696D01*
X330200Y488696D02*
X330200Y501904D01*
X304800Y501904D02*
X304800Y488696D01*
D10*
X520700Y652780D02*
X520700Y668020D01*
X495300Y668020D02*
X495300Y652780D01*
X393700Y652780D02*
X393700Y668020D01*
X368300Y668020D02*
X368300Y652780D01*
X1028700Y652780D02*
X1028700Y668020D01*
X1003300Y668020D02*
X1003300Y652780D01*
X901700Y652780D02*
X901700Y668020D01*
X876300Y668020D02*
X876300Y652780D01*
X266700Y652780D02*
X266700Y668020D01*
X241300Y668020D02*
X241300Y652780D01*
X114300Y652780D02*
X114300Y668020D01*
X88900Y668020D02*
X88900Y652780D01*
X774700Y652780D02*
X774700Y668020D01*
X749300Y668020D02*
X749300Y652780D01*
X647700Y652780D02*
X647700Y668020D01*
X622300Y668020D02*
X622300Y652780D01*
D13*
X368300Y222504D02*
X368300Y209296D01*
X393700Y209296D02*
X393700Y222504D01*
X469900Y222504D02*
X469900Y209296D01*
X495300Y209296D02*
X495300Y222504D01*
X419100Y222504D02*
X419100Y209296D01*
X444500Y209296D02*
X444500Y222504D01*
X520700Y222504D02*
X520700Y209296D01*
X546100Y209296D02*
X546100Y222504D01*
X546100Y285496D02*
X546100Y298704D01*
X520700Y298704D02*
X520700Y285496D01*
X495300Y285496D02*
X495300Y298704D01*
X469900Y298704D02*
X469900Y285496D01*
X444500Y285496D02*
X444500Y298704D01*
X419100Y298704D02*
X419100Y285496D01*
X393700Y285496D02*
X393700Y298704D01*
X368300Y298704D02*
X368300Y285496D01*
D10*
X1016000Y109220D02*
X1016000Y93980D01*
X1041400Y93980D02*
X1041400Y109220D01*
X876300Y109220D02*
X876300Y93980D01*
X901700Y93980D02*
X901700Y109220D01*
X736600Y109220D02*
X736600Y93980D01*
X762000Y93980D02*
X762000Y109220D01*
X596900Y109220D02*
X596900Y93980D01*
X622300Y93980D02*
X622300Y109220D01*
X457200Y109220D02*
X457200Y93980D01*
X482600Y93980D02*
X482600Y109220D01*
X317500Y109220D02*
X317500Y93980D01*
X342900Y93980D02*
X342900Y109220D01*
X203200Y109220D02*
X203200Y93980D01*
X228600Y93980D02*
X228600Y109220D01*
X63500Y109220D02*
X63500Y93980D01*
X88900Y93980D02*
X88900Y109220D01*
X1092200Y109220D02*
X1092200Y93980D01*
X1066800Y93980D02*
X1066800Y109220D01*
X952500Y109220D02*
X952500Y93980D01*
X927100Y93980D02*
X927100Y109220D01*
X812800Y109220D02*
X812800Y93980D01*
X787400Y93980D02*
X787400Y109220D01*
X673100Y109220D02*
X673100Y93980D01*
X647700Y93980D02*
X647700Y109220D01*
X533400Y109220D02*
X533400Y93980D01*
X508000Y93980D02*
X508000Y109220D01*
X393700Y109220D02*
X393700Y93980D01*
X368300Y93980D02*
X368300Y109220D01*
X279400Y109220D02*
X279400Y93980D01*
X254000Y93980D02*
X254000Y109220D01*
X139700Y109220D02*
X139700Y93980D01*
X114300Y93980D02*
X114300Y109220D01*
D14*
X1016000Y63500D03*
X1041400Y63500D03*
X508000Y63500D03*
X533400Y63500D03*
X317500Y63500D03*
X342900Y63500D03*
X368300Y63500D03*
X393700Y63500D03*
X203200Y63500D03*
X228600Y63500D03*
X254000Y63500D03*
X279400Y63500D03*
X63500Y63500D03*
X88900Y63500D03*
X114300Y63500D03*
X139700Y63500D03*
X1066800Y63500D03*
X1092200Y63500D03*
X876300Y63500D03*
X901700Y63500D03*
X927100Y63500D03*
X952500Y63500D03*
X736600Y63500D03*
X762000Y63500D03*
X787400Y63500D03*
X812800Y63500D03*
X596900Y63500D03*
X622300Y63500D03*
X647700Y63500D03*
X673100Y63500D03*
X457200Y63500D03*
X482600Y63500D03*
D10*
X1122680Y508000D02*
X1137920Y508000D01*
X1137920Y533400D02*
X1122680Y533400D01*
D15*
X139100Y233400D03*
X169100Y280400D03*
X110100Y280400D03*
D10*
X271780Y266700D02*
X287020Y266700D01*
X287020Y292100D02*
X271780Y292100D01*
M02*
