M48
;GenerationSoftware,Autodesk,EAGLE,9.3.2*%
;CreationDate,2019-08-30T13:28:28Z*%
FMAT,2
ICI,OFF
METRIC,TZ,000.000
T4C0.600
T3C0.813
T2C1.016
T1C3.000
%
G90
M71
T1
X2540Y76200
X116840Y76200
X116840Y2540
X2540Y2540
X13910Y23340
X16910Y28040
X11010Y28040
T2
X113030Y21590
X113030Y19050
X107950Y24130
X107950Y21590
X107950Y19050
X92710Y73660
X90170Y73660
X29210Y73660
X26670Y73660
X107950Y33020
X107950Y30480
X107950Y27940
X107950Y36830
X107950Y39370
X13970Y73660
X11430Y73660
X80010Y73660
X77470Y73660
X67310Y73660
X64770Y73660
X52070Y73660
X31750Y10160
X34290Y10160
X20320Y10160
X22860Y10160
X6350Y10160
X8890Y10160
X109220Y10160
X106680Y10160
X95250Y10160
X92710Y10160
X81280Y10160
X78740Y10160
X67310Y10160
X64770Y10160
X50800Y10160
X53340Y10160
X101600Y10160
X104140Y10160
X87630Y10160
X90170Y10160
X73660Y10160
X76200Y10160
X59690Y10160
X62230Y10160
X45720Y10160
X54610Y73660
X48260Y10160
X41910Y73660
X39370Y73660
X105410Y73660
X102870Y73660
X39370Y10160
X36830Y10160
X27940Y10160
X25400Y10160
X13970Y10160
X11430Y10160
X113030Y50800
X113030Y53340
X113030Y36830
X113030Y39370
X113030Y24130
X27940Y24130
X27940Y26670
T3
X78740Y45720
X81280Y45720
X83820Y45720
X86360Y45720
X88900Y45720
X91440Y45720
X30480Y39370
X33020Y39370
X40640Y39370
X43180Y39370
X35560Y39370
X38100Y39370
X45720Y39370
X48260Y39370
X48260Y46990
X45720Y46990
X43180Y46990
X40640Y46990
X38100Y46990
X35560Y46990
X33020Y46990
X30480Y46990
X76200Y53340
X49530Y21590
X52070Y21590
X59690Y21590
X62230Y21590
X54610Y21590
X57150Y21590
X64770Y21590
X67310Y21590
X67310Y29210
X64770Y29210
X62230Y29210
X59690Y29210
X57150Y29210
X54610Y29210
X49530Y29210
X52070Y29210
X100330Y50800
X100330Y53340
X20320Y46990
X20320Y44450
X91440Y53340
X88900Y53340
X101600Y6350
X104140Y6350
X50800Y6350
X53340Y6350
X31750Y6350
X34290Y6350
X36830Y6350
X39370Y6350
X20320Y6350
X22860Y6350
X25400Y6350
X27940Y6350
X6350Y6350
X8890Y6350
X11430Y6350
X13970Y6350
X106680Y6350
X109220Y6350
X87630Y6350
X90170Y6350
X92710Y6350
X95250Y6350
X73660Y6350
X76200Y6350
X78740Y6350
X81280Y6350
X59690Y6350
X62230Y6350
X64770Y6350
X67310Y6350
X45720Y6350
X48260Y6350
X81280Y53340
X78740Y53340
X86360Y53340
X83820Y53340
X73660Y53340
X73660Y45720
X76200Y45720
T4
X10160Y68580
X10160Y66040
X10160Y63500
X10160Y60960
X17780Y60960
X17780Y63500
X17780Y66040
X17780Y68580
X25400Y68580
X25400Y66040
X25400Y63500
X25400Y60960
X33020Y60960
X33020Y63500
X33020Y66040
X33020Y68580
X50800Y68580
X50800Y66040
X50800Y63500
X50800Y60960
X58420Y60960
X58420Y63500
X58420Y66040
X58420Y68580
X38100Y68580
X38100Y66040
X38100Y63500
X38100Y60960
X45720Y60960
X45720Y63500
X45720Y66040
X45720Y68580
X101600Y68580
X101600Y66040
X101600Y63500
X101600Y60960
X109220Y60960
X109220Y63500
X109220Y66040
X109220Y68580
X88900Y68580
X88900Y66040
X88900Y63500
X88900Y60960
X96520Y60960
X96520Y63500
X96520Y66040
X96520Y68580
X63500Y68580
X63500Y66040
X63500Y63500
X63500Y60960
X71120Y60960
X71120Y63500
X71120Y66040
X71120Y68580
X76200Y68580
X76200Y66040
X76200Y63500
X76200Y60960
X83820Y60960
X83820Y63500
X83820Y66040
X83820Y68580
M30