M48
;GenerationSoftware,Autodesk,EAGLE,9.3.2*%
;CreationDate,2019-08-28T07:53:45Z*%
FMAT,2
ICI,OFF
METRIC,TZ,000.000
T5C0.800
T4C0.813
T3C1.000
T2C1.016
T1C3.000
%
G90
M71
T1
X2540Y71120
X99060Y71120
X99060Y2540
X2540Y2540
T2
X92710Y46990
X92710Y49530
X92710Y34290
X92710Y31750
X92710Y29210
X87630Y34290
X87630Y31750
X87630Y29210
X49530Y66040
X46990Y66040
X36830Y10160
X34290Y10160
X87630Y25400
X87630Y22860
X87630Y20320
X90170Y46990
X90170Y49530
X25400Y10160
X22860Y10160
X13970Y10160
X11430Y10160
X92710Y55880
X92710Y58420
X31750Y10160
X86360Y10160
X88900Y10160
X74930Y10160
X77470Y10160
X63500Y10160
X66040Y10160
X52070Y10160
X54610Y10160
X40640Y10160
X43180Y10160
X29210Y10160
X17780Y10160
X20320Y10160
X6350Y10160
X8890Y10160
X93980Y10160
X91440Y10160
X82550Y10160
X80010Y10160
X71120Y10160
X68580Y10160
X59690Y10160
X57150Y10160
X48260Y10160
X45720Y10160
X39370Y66040
X36830Y66040
X29210Y66040
X26670Y66040
X80010Y66040
X77470Y66040
X69850Y66040
X67310Y66040
X19050Y66040
X16510Y66040
X8890Y66040
X6350Y66040
X59690Y66040
X57150Y66040
T3
X16970Y20320
T4
X80010Y50800
X7620Y49530
X7620Y46990
X71120Y50800
X68580Y50800
X60960Y50800
X58420Y50800
X66040Y50800
X63500Y50800
X55880Y50800
X53340Y50800
X53340Y43180
X55880Y43180
X58420Y43180
X60960Y43180
X63500Y43180
X66040Y43180
X68580Y43180
X71120Y43180
X20320Y44450
X22860Y44450
X30480Y44450
X33020Y44450
X25400Y44450
X27940Y44450
X35560Y44450
X38100Y44450
X38100Y52070
X35560Y52070
X33020Y52070
X30480Y52070
X27940Y52070
X25400Y52070
X22860Y52070
X20320Y52070
X36830Y24130
X39370Y24130
X46990Y24130
X49530Y24130
X41910Y24130
X44450Y24130
X52070Y24130
X54610Y24130
X44450Y31750
X54610Y31750
X41910Y31750
X39370Y31750
X36830Y31750
X52070Y31750
X86360Y6350
X88900Y6350
X45720Y6350
X48260Y6350
X29210Y6350
X31750Y6350
X34290Y6350
X36830Y6350
X17780Y6350
X20320Y6350
X22860Y6350
X25400Y6350
X6350Y6350
X8890Y6350
X11430Y6350
X13970Y6350
X91440Y6350
X80010Y48260
X74930Y6350
X77470Y6350
X80010Y6350
X82550Y6350
X63500Y6350
X66040Y6350
X68580Y6350
X71120Y6350
X52070Y6350
X54610Y6350
X57150Y6350
X59690Y6350
X40640Y6350
X43180Y6350
X49530Y31750
X46990Y31750
X93980Y6350
T5
X10970Y20320
X13970Y15520
M30